<svg width="45" height="45" viewBox="0 0 45 45" fill="none" xmlns="http://www.w3.org/2000/svg">
<g clip-path="url(#clip0_14_231)">
<path d="M45 19.2857C45.8873 19.2857 46.6448 19.5996 47.2726 20.2274C47.9004 20.8552 48.2143 21.6127 48.2143 22.5C48.2143 23.3873 47.9004 24.1448 47.2726 24.7726C46.6448 25.4004 45.8873 25.7143 45 25.7143H44.6233L41.7355 42.3382C41.6016 43.1083 41.2333 43.7444 40.6306 44.2467C40.0279 44.7489 39.3415 45 38.5714 45H6.42857C5.65848 45 4.9721 44.7489 4.36942 44.2467C3.76674 43.7444 3.39844 43.1083 3.26451 42.3382L0.376673 25.7143H-1.19209e-06C-0.887278 25.7143 -1.64481 25.4004 -2.2726 24.7726C-2.90039 24.1448 -3.21429 23.3873 -3.21429 22.5C-3.21429 21.6127 -2.90039 20.8552 -2.2726 20.2274C-1.64481 19.5996 -0.887278 19.2857 -1.19209e-06 19.2857H45ZM8.96484 39.375C9.40011 39.3415 9.76423 39.1532 10.0572 38.81C10.3502 38.4668 10.4799 38.0776 10.4464 37.6423L9.64286 27.1959C9.60937 26.7606 9.42104 26.3965 9.07784 26.1035C8.73465 25.8105 8.34542 25.6808 7.91015 25.7143C7.47489 25.7478 7.11077 25.9361 6.8178 26.2793C6.52483 26.6225 6.39509 27.0117 6.42857 27.447L7.23214 37.8934C7.26562 38.3119 7.43722 38.6635 7.74693 38.9481C8.05664 39.2327 8.42076 39.375 8.83928 39.375H8.96484ZM19.2857 37.7679V27.3214C19.2857 26.8862 19.1267 26.5095 18.8086 26.1914C18.4905 25.8733 18.1138 25.7143 17.6786 25.7143C17.2433 25.7143 16.8666 25.8733 16.5485 26.1914C16.2305 26.5095 16.0714 26.8862 16.0714 27.3214V37.7679C16.0714 38.2031 16.2305 38.5798 16.5485 38.8979C16.8666 39.216 17.2433 39.375 17.6786 39.375C18.1138 39.375 18.4905 39.216 18.8086 38.8979C19.1267 38.5798 19.2857 38.2031 19.2857 37.7679ZM28.9286 37.7679V27.3214C28.9286 26.8862 28.7695 26.5095 28.4514 26.1914C28.1334 25.8733 27.7567 25.7143 27.3214 25.7143C26.8862 25.7143 26.5095 25.8733 26.1914 26.1914C25.8733 26.5095 25.7143 26.8862 25.7143 27.3214V37.7679C25.7143 38.2031 25.8733 38.5798 26.1914 38.8979C26.5095 39.216 26.8862 39.375 27.3214 39.375C27.7567 39.375 28.1334 39.216 28.4514 38.8979C28.7695 38.5798 28.9286 38.2031 28.9286 37.7679ZM37.7679 37.8934L38.5714 27.447C38.6049 27.0117 38.4752 26.6225 38.1822 26.2793C37.8892 25.9361 37.5251 25.7478 37.0898 25.7143C36.6546 25.6808 36.2653 25.8105 35.9222 26.1035C35.579 26.3965 35.3906 26.7606 35.3571 27.1959L34.5536 37.6423C34.5201 38.0776 34.6498 38.4668 34.9428 38.81C35.2358 39.1532 35.5999 39.3415 36.0352 39.375H36.1607C36.5792 39.375 36.9434 39.2327 37.2531 38.9481C37.5628 38.6635 37.7344 38.3119 37.7679 37.8934ZM8.73884 7.33259L6.40346 17.6786H3.08873L5.625 6.60435C5.94308 5.13114 6.68806 3.92997 7.85993 3.00084C9.03181 2.07171 10.3711 1.60714 11.8778 1.60714H16.0714C16.0714 1.17188 16.2305 0.795201 16.5485 0.477121C16.8666 0.15904 17.2433 0 17.6786 0H27.3214C27.7567 0 28.1334 0.15904 28.4514 0.477121C28.7695 0.795201 28.9286 1.17188 28.9286 1.60714H33.1222C34.6289 1.60714 35.9682 2.07171 37.1401 3.00084C38.3119 3.92997 39.0569 5.13114 39.375 6.60435L41.9113 17.6786H38.5965L36.2612 7.33259C36.077 6.59598 35.6961 5.9933 35.1186 5.52455C34.541 5.0558 33.8756 4.82143 33.1222 4.82143H28.9286C28.9286 5.2567 28.7695 5.63337 28.4514 5.95145C28.1334 6.26953 27.7567 6.42857 27.3214 6.42857H17.6786C17.2433 6.42857 16.8666 6.26953 16.5485 5.95145C16.2305 5.63337 16.0714 5.2567 16.0714 4.82143H11.8778C11.1244 4.82143 10.459 5.0558 9.88142 5.52455C9.30385 5.9933 8.92299 6.59598 8.73884 7.33259Z" fill="#1A6D31"/>
</g>
<defs>
<clipPath id="clip0_14_231">
<rect width="45" height="45" fill="white"/>
</clipPath>
</defs>
</svg>
