<svg width="50" height="50" viewBox="0 0 50 50" fill="none" xmlns="http://www.w3.org/2000/svg">
<path d="M15.8241 0.000149636C15.6033 0.00264335 15.3925 0.0925497 15.2378 0.250178C15.0831 0.407806 14.9972 0.620309 14.9989 0.841145V2.50739C15.0241 3.59407 16.6431 3.59407 16.6683 2.50739V0.837995C16.6691 0.726928 16.6477 0.616814 16.6053 0.514153C16.5629 0.411491 16.5004 0.318363 16.4214 0.240266C16.3424 0.162169 16.2486 0.100686 16.1455 0.0594453C16.0424 0.0182047 15.9352 -0.00195731 15.8241 0.000149636ZM10.7122 3.55942L11.909 4.75949C12.6965 5.54694 13.8776 4.36577 13.087 3.57832L11.8901 2.38454C11.8123 2.30469 11.7192 2.24125 11.6164 2.19797C11.5136 2.15469 11.4032 2.13245 11.2917 2.13256C11.1271 2.13427 10.9667 2.1846 10.8307 2.27721C10.6946 2.36983 10.589 2.50061 10.5271 2.6531C10.4651 2.80559 10.4496 2.97299 10.4826 3.13425C10.5155 3.29551 10.5954 3.44343 10.7122 3.55942ZM19.7739 2.38454L18.577 3.57832C17.7895 4.36577 18.9675 5.54694 19.7581 4.75949L20.9487 3.56257C21.0664 3.44694 21.1471 3.29903 21.1808 3.13753C21.2145 2.97603 21.1995 2.80817 21.1378 2.65516C21.0762 2.50215 20.9705 2.37084 20.8343 2.27783C20.698 2.18482 20.5373 2.13427 20.3723 2.13256C20.2608 2.13245 20.1504 2.15469 20.0476 2.19797C19.9448 2.24125 19.8517 2.30469 19.7739 2.38454ZM2.49772 6.66512C2.16934 6.6647 1.8441 6.72913 1.54067 6.8547C1.23724 6.98028 0.961589 7.16453 0.729531 7.39689C0.497472 7.62925 0.313574 7.90514 0.188384 8.20873C0.0631947 8.51233 -0.000821564 8.83766 7.95956e-06 9.16605V20.836C7.95956e-06 22.222 1.1276 23.3307 2.49772 23.3307H5.11198C4.98523 23.8231 4.97272 24.3379 5.07541 24.8359C5.1781 25.3339 5.39327 25.8018 5.70447 26.2039C6.01568 26.606 6.41468 26.9316 6.87099 27.1559C7.3273 27.3801 7.82884 27.4971 8.33728 27.4979C8.84507 27.4964 9.3458 27.3789 9.80116 27.1541C10.2565 26.9294 10.6545 26.6035 10.9645 26.2014C11.2745 25.7992 11.4885 25.3314 11.59 24.8339C11.6914 24.3363 11.6778 23.8221 11.55 23.3307H14.1642C14.7803 23.3362 15.3761 23.1102 15.8336 22.6976C16.2745 23.0944 16.8541 23.3307 17.4998 23.3307H29.1631C29.4915 23.3319 29.8169 23.2683 30.1207 23.1435C30.4244 23.0187 30.7005 22.8351 30.9332 22.6034C31.1658 22.3716 31.3504 22.0962 31.4764 21.7929C31.6023 21.4896 31.6672 21.1644 31.6672 20.836V18.2217C32.1594 18.3492 32.6743 18.3622 33.1724 18.2598C33.6705 18.1574 34.1385 17.9422 34.5405 17.6308C34.9426 17.3194 35.2679 16.92 35.4916 16.4634C35.7153 16.0067 35.8314 15.5048 35.8311 14.9963C35.8297 14.4885 35.7124 13.9876 35.4881 13.532C35.2638 13.0764 34.9385 12.678 34.5369 12.3672C34.1352 12.0564 33.6679 11.8414 33.1706 11.7386C32.6733 11.6358 32.1591 11.648 31.6672 11.7741V9.16605C31.6676 8.83724 31.6031 8.51159 31.4773 8.20777C31.3516 7.90395 31.1671 7.62794 30.9345 7.39558C30.7018 7.16322 30.4256 6.97909 30.1216 6.85374C29.8177 6.72839 29.4919 6.66429 29.1631 6.66512H25.1914C24.4669 6.66512 24.089 7.51871 24.5709 8.05733C24.7862 8.29604 24.9276 8.59215 24.9779 8.90969C25.0281 9.22724 24.9851 9.55254 24.854 9.84609C24.7229 10.1396 24.5094 10.3888 24.2394 10.5633C23.9694 10.7378 23.6545 10.8302 23.333 10.8291C23.0119 10.8294 22.6975 10.7367 22.4279 10.5622C22.1583 10.3876 21.945 10.1388 21.8138 9.84566C21.6825 9.55253 21.639 9.22767 21.6883 8.91032C21.7377 8.59297 21.8779 8.29671 22.092 8.05733C22.1994 7.93776 22.2699 7.78977 22.2952 7.6311C22.3204 7.47244 22.2994 7.30986 22.2345 7.16287C22.1697 7.01587 22.0638 6.89072 21.9296 6.80243C21.7954 6.71414 21.6385 6.66646 21.4779 6.66512H17.5029C16.8867 6.66204 16.2914 6.88891 15.8336 7.30138C15.3772 6.89063 14.7846 6.6639 14.1705 6.66512H2.49772ZM20.1109 8.33451C19.9828 8.82658 19.9692 9.34146 20.0712 9.83959C20.1732 10.3377 20.3881 10.8058 20.6992 11.208C21.0104 11.6101 21.4096 11.9355 21.8662 12.1592C22.3228 12.383 22.8246 12.499 23.333 12.4985C23.8417 12.4995 24.3439 12.3838 24.8009 12.1603C25.2579 11.9368 25.6575 11.6114 25.969 11.2092C26.2805 10.807 26.4956 10.3387 26.5978 9.84036C26.7 9.34199 26.6865 8.82683 26.5583 8.33451H29.1663C29.6135 8.33451 30.0041 8.68728 30.0041 9.1629V13.1379C30.0041 13.8592 30.8545 14.2404 31.39 13.7585C31.628 13.5396 31.9248 13.3952 32.2439 13.343C32.563 13.2908 32.8903 13.3331 33.1857 13.4647C33.481 13.5963 33.7314 13.8114 33.9059 14.0836C34.0805 14.3557 34.1716 14.673 34.168 14.9963C34.1688 15.3181 34.0763 15.6332 33.9016 15.9034C33.727 16.1736 33.4776 16.3874 33.1839 16.5188C32.8902 16.6501 32.5647 16.6935 32.2468 16.6435C31.929 16.5936 31.6324 16.4525 31.3931 16.2373C31.2729 16.1305 31.1243 16.0607 30.9653 16.0363C30.8063 16.0119 30.6436 16.034 30.4969 16.0999C30.3502 16.1658 30.2256 16.2727 30.1382 16.4077C30.0507 16.5427 30.0042 16.7001 30.0041 16.861V20.836C30.0037 20.9455 29.9817 21.0538 29.9393 21.1548C29.8969 21.2557 29.8351 21.3473 29.7572 21.4242C29.6794 21.5012 29.5871 21.562 29.4857 21.6033C29.3843 21.6445 29.2757 21.6653 29.1663 21.6644H17.5029C17.3935 21.6653 17.2849 21.6445 17.1835 21.6033C17.0821 21.562 16.9898 21.5012 16.912 21.4242C16.8341 21.3473 16.7723 21.2557 16.7299 21.1548C16.6875 21.0538 16.6655 20.9455 16.6651 20.836V16.8516C16.6638 16.6912 16.6164 16.5347 16.5285 16.4006C16.4406 16.2665 16.316 16.1605 16.1694 16.0954C16.0229 16.0303 15.8608 16.0088 15.7024 16.0334C15.5439 16.058 15.3959 16.1277 15.2761 16.2342C15.0368 16.4483 14.7407 16.5885 14.4235 16.638C14.1062 16.6875 13.7815 16.644 13.4884 16.513C13.1953 16.3819 12.9464 16.1688 12.7718 15.8994C12.5971 15.63 12.5042 15.3158 12.5042 14.9948C12.5042 14.6737 12.5971 14.3595 12.7718 14.0901C12.9464 13.8207 13.1953 13.6076 13.4884 13.4765C13.7815 13.3455 14.1062 13.302 14.4235 13.3515C14.7407 13.401 15.0368 13.5412 15.2761 13.7553C15.8115 14.2372 16.6683 13.8561 16.6651 13.1348V9.1629C16.6651 8.71563 17.0273 8.33451 17.5029 8.33451H20.1109ZM38.8579 16.294L35.4814 19.2548C35.094 19.6002 34.8495 20.0778 34.7959 20.5941C34.7423 21.1103 34.8834 21.628 35.1917 22.0456L34.4924 22.8015C32.2309 24.704 27.8056 24.9276 24.7945 31.4824L24.3598 32.4682C24.1394 32.5659 23.437 32.8714 22.3881 33.2777C21.7979 33.5094 21.2001 33.7216 20.5959 33.914C20.2269 34.0394 19.8459 34.1259 19.4589 34.1723H19.0305C18.8576 33.6846 18.5381 33.2623 18.1157 32.9635C17.6933 32.6646 17.1888 32.5037 16.6714 32.5029H12.4949C12.167 32.5029 11.8424 32.5675 11.5395 32.6931C11.2367 32.8186 10.9615 33.0027 10.7299 33.2347C10.4982 33.4666 10.3145 33.742 10.1893 34.0451C10.0641 34.3481 9.99991 34.6728 10.0003 35.0007V45.8391C9.99991 46.1667 10.0642 46.4911 10.1894 46.7938C10.3147 47.0965 10.4985 47.3714 10.7302 47.6029C10.962 47.8344 11.2372 48.0178 11.54 48.1427C11.8428 48.2676 12.1673 48.3314 12.4949 48.3306H16.6714C17.1869 48.3306 17.6898 48.171 18.1111 47.8738C18.5323 47.5766 18.8513 47.1563 19.0242 46.6707H19.3581L21.7519 47.2628C21.841 47.6368 22.0161 47.9848 22.2633 48.2792C22.5104 48.5736 22.8228 48.8064 23.1757 48.9589C23.5285 49.1115 23.9121 49.1797 24.2959 49.1581C24.6797 49.1365 25.0531 49.0258 25.3866 48.8346C25.8276 49.5307 26.593 50 27.5001 50C28.1521 50 28.7285 49.7543 29.1663 49.3606C29.6072 49.7543 30.1805 50 30.8325 50C31.7396 50 32.5081 49.5275 32.9428 48.8346C33.2593 49.016 33.6119 49.1254 33.9755 49.1552C34.3391 49.185 34.7048 49.1343 35.0466 49.0069C35.3885 48.8794 35.698 48.6782 35.9534 48.4176C36.2087 48.157 36.4035 47.8434 36.524 47.4991H37.5004C37.9375 47.5015 38.3676 47.3889 38.7474 47.1725C39.1273 46.9561 39.4435 46.6436 39.6643 46.2664C39.8852 45.8891 40.0029 45.4604 40.0056 45.0233C40.0084 44.5862 39.8961 44.156 39.68 43.776C40.0371 43.5525 40.3308 43.2411 40.5332 42.8716C40.7356 42.5021 40.8398 42.0869 40.8359 41.6656C40.8373 41.0504 40.608 40.4571 40.1934 40.0025C40.6082 39.5456 40.8373 38.9503 40.8359 38.3332C40.8375 37.9027 40.7267 37.4793 40.5147 37.1047C40.9458 36.8353 41.2831 36.4392 41.4805 35.9706C41.6778 35.5021 41.7255 34.984 41.6171 34.4873L43.6234 31.432C44.3605 31.8099 45.277 31.7312 45.929 31.1579L49.3055 28.1971C49.715 27.8306 49.9632 27.3173 49.9962 26.7687C50.0293 26.2202 49.8444 25.6808 49.4819 25.2678L41.7903 16.5051C41.4267 16.0851 40.9112 15.8268 40.3572 15.7869C40.0864 15.7673 39.8143 15.8017 39.5569 15.8883C39.2995 15.9748 39.0619 16.1148 38.8579 16.294ZM36.2909 23.3118L42.3951 30.2634L40.6218 32.9659C40.1989 32.6643 39.6923 32.5024 39.1729 32.5029H34.3979C34.7987 32.0343 35.0237 31.4406 35.0342 30.824C35.0334 30.6027 34.9446 30.3907 34.7875 30.2348C34.6304 30.0788 34.4177 29.9917 34.1964 29.9925C33.975 29.9933 33.763 30.0821 33.6071 30.2392C33.4511 30.3963 33.364 30.609 33.3648 30.8303C33.368 31.0508 33.2074 31.391 32.8388 31.7343C32.4641 32.0694 32.029 32.3302 31.5569 32.5029H30.8136C30.001 32.5029 29.4592 32.7297 29.056 33.0887C28.6529 33.4478 28.4828 33.8227 28.3159 34.0652C27.6355 35.0731 26.3945 36.8087 26.3945 36.8087C26.0071 37.4449 25.5032 37.6434 25.0402 37.4512C24.924 37.4025 24.8188 37.3311 24.7305 37.2413C24.6422 37.1514 24.5728 37.0449 24.5262 36.9279C24.4795 36.8109 24.4567 36.6858 24.459 36.5598C24.4612 36.4339 24.4886 36.3097 24.5394 36.1944L26.319 32.1627C29.0781 26.1624 33.0341 26.2348 35.5948 24.0583C35.6228 24.0349 35.6491 24.0096 35.6736 23.9827L36.2909 23.3118ZM40.0013 34.9975C40.0025 35.1072 39.9819 35.2161 39.9406 35.3177C39.8993 35.4193 39.8382 35.5117 39.7607 35.5894C39.6833 35.6672 39.5912 35.7287 39.4897 35.7703C39.3882 35.812 39.2794 35.8331 39.1698 35.8322H34.9995C33.8656 35.807 33.8656 37.5237 34.9995 37.4985L38.3382 37.5016C38.8138 37.5016 39.1666 37.8796 39.1666 38.3332C39.1674 38.4422 39.1466 38.5503 39.1053 38.6512C39.0639 38.752 39.0029 38.8437 38.9258 38.9208C38.8488 38.9979 38.7571 39.0589 38.6562 39.1002C38.5553 39.1415 38.4472 39.1624 38.3382 39.1616C37.2201 39.1616 36.1177 39.1679 34.9995 39.1647C33.8656 39.1395 33.8656 40.8561 34.9995 40.8341H38.3351C38.8107 40.8341 39.1666 41.231 39.1666 41.6656C39.1674 41.7748 39.1466 41.8831 39.1053 41.9841C39.064 42.0852 39.0031 42.177 38.926 42.2544C38.849 42.3317 38.7574 42.393 38.6565 42.4347C38.5556 42.4764 38.4474 42.4976 38.3382 42.4972C36.9524 42.5035 35.4909 42.5035 34.1586 42.4972C33.7325 42.4988 33.314 42.6094 32.9428 42.8185C32.7184 42.4624 32.4068 42.1696 32.0374 41.9678C31.6681 41.7661 31.2533 41.662 30.8325 41.6656C30.2169 41.6596 29.6213 41.8844 29.1631 42.2956C28.7066 41.8858 28.1135 41.6612 27.5001 41.6656C27.07 41.6633 26.6466 41.7729 26.2717 41.9838C26.0474 41.6296 25.7364 41.3384 25.3683 41.1378C25.0002 40.9372 24.5869 40.8338 24.1677 40.8372C23.8392 40.8356 23.5137 40.899 23.2099 41.024C22.9061 41.1489 22.6301 41.3328 22.3978 41.5651C22.1656 41.7974 21.9816 42.0734 21.8567 42.3772C21.7318 42.681 21.6683 43.0066 21.67 43.335V45.5273L19.5628 45.0044H19.166L19.1691 35.8385H19.4589C19.8998 35.8385 20.4825 35.6936 21.0873 35.5078C21.6952 35.3188 22.3598 35.0763 22.9834 34.8369L23.3897 34.6699L23.0118 35.5235C22.8732 35.8396 22.7986 36.1799 22.7923 36.5249C22.7859 36.8699 22.8479 37.2128 22.9747 37.5337C23.1015 37.8546 23.2906 38.1472 23.531 38.3947C23.7714 38.6422 24.0585 38.8397 24.3756 38.9757C25.7615 39.5805 27.1095 38.8403 27.7867 37.7253C27.8277 37.6686 29.0025 36.0275 29.6954 35.0007C29.9348 34.6479 30.0703 34.4211 30.1679 34.3298C30.2403 34.2668 30.3506 34.1723 30.8136 34.1723L39.1698 34.1691C39.6485 34.1691 40.0013 34.5471 40.0013 34.9975ZM24.1677 42.4972C24.6213 42.4972 24.9961 42.8594 24.9961 43.335V46.6612C24.9953 46.8816 24.908 47.0928 24.7531 47.2495C24.5982 47.4061 24.388 47.4958 24.1677 47.4991C23.9468 47.4966 23.7358 47.4073 23.5802 47.2505C23.4247 47.0938 23.337 46.8821 23.3362 46.6612V43.335C23.3362 42.8594 23.7141 42.4972 24.1677 42.4972ZM27.5001 43.3319C27.9536 43.3319 28.3316 43.6847 28.3316 44.1634V47.5022C28.3308 47.7231 28.2431 47.9348 28.0875 48.0915C27.932 48.2483 27.7209 48.3376 27.5001 48.3401C27.2798 48.3368 27.0696 48.2471 26.9147 48.0905C26.7598 47.9338 26.6725 47.7225 26.6717 47.5022V44.1634C26.6717 43.6847 27.0497 43.3319 27.5001 43.3319ZM30.8325 43.3319C31.2829 43.3319 31.6672 43.6847 31.6672 44.1634V47.5022C31.6639 47.7229 31.575 47.9336 31.4193 48.09C31.2635 48.2463 31.0531 48.336 30.8325 48.3401C30.6116 48.3376 30.4006 48.2483 30.245 48.0915C30.0894 47.9348 30.0018 47.7231 30.001 47.5022V44.1634C30.001 43.6847 30.3789 43.3319 30.8325 43.3319ZM34.1775 44.1666C34.3961 44.1682 34.6052 44.2563 34.7591 44.4114C34.9131 44.5666 34.9995 44.7764 34.9995 44.995V46.6644C34.9979 46.8842 34.9103 47.0946 34.7555 47.2506C34.6007 47.4066 34.3909 47.4958 34.1712 47.4991C33.95 47.4958 33.7388 47.4065 33.5823 47.2501C33.4259 47.0936 33.3366 46.8824 33.3333 46.6612V44.995C33.3333 44.5257 33.7082 44.176 34.1775 44.1666ZM36.524 44.1666H37.5004C37.9729 44.1666 38.3351 44.5446 38.3351 44.9981C38.3372 45.1086 38.317 45.2184 38.2756 45.3208C38.2342 45.4233 38.1726 45.5163 38.0943 45.5943C38.016 45.6723 37.9228 45.7336 37.8202 45.7746C37.7176 45.8156 37.6077 45.8354 37.4973 45.8328H36.6689V44.995C36.6677 44.7126 36.6187 44.4326 36.524 44.1666Z" fill="#1A6D31"/>
</svg>
