<svg width="65" height="65" viewBox="0 0 65 65" fill="none" xmlns="http://www.w3.org/2000/svg">
<path d="M44.7129 10.169V13.0825H11.2696V10.169C11.2696 7.88761 13.1371 6.01886 15.4185 6.01886H40.5641C42.8454 6.01886 44.7129 7.88761 44.7129 10.169Z" fill="#303C44"/>
<path d="M49.0395 20.932L50.6619 23.8773H5.32062L11.2696 13.0825H44.7142L49.0382 20.932H49.0395Z" fill="#02942E"/>
<path d="M10.9878 23.8773V28.5797C10.9878 29.9596 9.99376 31.1073 8.67853 31.3523C8.50968 31.3841 8.33449 31.4018 8.15421 31.4018C6.59015 31.4018 5.32062 30.1374 5.32062 28.5797V23.8773H10.9878Z" fill="#1A6D31"/>
<path d="M16.6563 23.8773V28.5797C16.6563 30.1386 15.3867 31.4018 13.8227 31.4018C12.6991 31.4018 11.7292 30.7518 11.2696 29.8086V29.8073C11.0836 29.4248 10.9873 29.005 10.9878 28.5797V23.8773H16.6563Z" fill="#ECEFF0"/>
<path d="M22.3234 23.8773V28.5797C22.3234 30.1386 21.0552 31.4018 19.4898 31.4018C17.9245 31.4018 16.6562 30.1386 16.6562 28.5797V23.8773H22.3234Z" fill="#1A6D31"/>
<path d="M27.9919 23.8773V28.5797C27.9919 30.1386 26.7224 31.4018 25.1583 31.4018C23.593 31.4018 22.3234 30.1386 22.3234 28.5797V23.8773H27.9919Z" fill="#ECEFF0"/>
<path d="M33.6591 23.8773V28.5797C33.6591 30.1386 32.3908 31.4018 30.8255 31.4018C29.2601 31.4018 27.9919 30.1386 27.9919 28.5797V23.8773H33.6591Z" fill="#1A6D31"/>
<path d="M39.3275 23.8773V28.5797C39.3275 30.1386 38.058 31.4018 36.4939 31.4018C34.9286 31.4018 33.6591 30.1386 33.6591 28.5797V23.8773H39.3275Z" fill="#ECEFF0"/>
<path d="M44.9947 23.8773V28.5797C44.9947 29.0202 44.8932 29.4366 44.7129 29.8073V29.8086C44.4801 30.2869 44.1172 30.6901 43.666 30.9719C43.2147 31.2536 42.6932 31.4026 42.1611 31.4018C40.5958 31.4018 39.3275 30.1386 39.3275 28.5797V23.8773H44.9947Z" fill="#1A6D31"/>
<path d="M50.6619 23.8773V28.5797C50.6619 28.9631 50.5845 29.33 50.4448 29.6638C50.2289 30.1794 49.8652 30.6196 49.3996 30.9288C48.934 31.2381 48.3873 31.4027 47.8283 31.4018C46.263 31.4018 44.9947 30.1386 44.9947 28.5797V23.8773H50.6619Z" fill="#ECEFF0"/>
<path d="M44.7129 51.9175V54.8323C44.7129 57.1137 42.8454 58.9812 40.5641 58.9812H15.4185C13.1371 58.9812 11.2696 57.1137 11.2696 54.8323V51.9175H44.7129Z" fill="#303C44"/>
<path d="M44.7129 29.8086V51.9175H11.2696V29.8086C11.5029 30.2869 11.866 30.69 12.3174 30.9717C12.7689 31.2535 13.2905 31.4025 13.8227 31.4019C15.3867 31.4019 16.6562 30.1387 16.6562 28.5797C16.6562 30.1387 17.9245 31.4019 19.4898 31.4019C21.0552 31.4019 22.3234 30.1387 22.3234 28.5797C22.3234 30.1387 23.593 31.4019 25.1583 31.4019C26.7224 31.4019 27.9919 30.1387 27.9919 28.5797C27.9919 30.1387 29.2602 31.4019 30.8255 31.4019C32.3908 31.4019 33.6591 30.1387 33.6591 28.5797C33.6591 30.1387 34.9286 31.4019 36.4939 31.4019C36.6196 31.4019 36.744 31.3943 36.8646 31.3765C38.0986 31.2165 39.0838 30.2657 39.2882 29.0494C39.3136 28.8971 39.3275 28.7397 39.3275 28.5797C39.3275 28.7168 39.3377 28.8501 39.3567 28.9822C39.5522 30.3507 40.7329 31.4019 42.1611 31.4019C43.2847 31.4019 44.2546 30.7519 44.7129 29.8086Z" fill="#007ECA"/>
<path opacity="0.2" d="M44.7129 29.8086V31.5009C44.4801 31.9793 44.1172 32.3824 43.666 32.6642C43.2147 32.946 42.6932 33.095 42.1611 33.0942C40.5958 33.0942 39.3275 31.831 39.3275 30.272C39.3275 31.831 38.058 33.0942 36.4939 33.0942C34.9286 33.0942 33.6591 31.831 33.6591 30.272C33.6591 31.831 32.3908 33.0942 30.8255 33.0942C29.2602 33.0942 27.9919 31.831 27.9919 30.272C27.9919 31.831 26.7224 33.0942 25.1583 33.0942C23.593 33.0942 22.3234 31.831 22.3234 30.272C22.3234 31.831 21.0552 33.0942 19.4898 33.0942C17.9245 33.0942 16.6562 31.831 16.6562 30.272C16.6562 31.831 15.3867 33.0942 13.8227 33.0942C12.6991 33.0942 11.7292 32.4442 11.2696 31.5009V29.8086C11.5029 30.2869 11.866 30.69 12.3174 30.9717C12.7689 31.2535 13.2905 31.4025 13.8227 31.4019C15.3867 31.4019 16.6562 30.1387 16.6562 28.5797C16.6562 30.1387 17.9245 31.4019 19.4898 31.4019C21.0552 31.4019 22.3234 30.1387 22.3234 28.5797C22.3234 30.1387 23.593 31.4019 25.1583 31.4019C26.7224 31.4019 27.9919 30.1387 27.9919 28.5797C27.9919 30.1387 29.2602 31.4019 30.8255 31.4019C32.3908 31.4019 33.6591 30.1387 33.6591 28.5797C33.6591 30.1387 34.9286 31.4019 36.4939 31.4019C38.058 31.4019 39.3275 30.1387 39.3275 28.5797C39.3275 30.1387 40.5958 31.4019 42.1611 31.4019C43.2847 31.4019 44.2546 30.7519 44.7129 29.8086Z" fill="black"/>
<path d="M59.6794 22.9341V29.6638H50.4448C50.5845 29.33 50.6619 28.9631 50.6619 28.5797V23.8773L49.0395 20.932H57.6774C58.7831 20.932 59.6794 21.8283 59.6794 22.9341Z" fill="#FFC035"/>
<path d="M44.9947 28.5797C44.9947 30.1387 46.263 31.4019 47.8283 31.4019C49.0077 31.4019 50.0195 30.6846 50.4448 29.6639H59.6794V35.3362H44.7129V29.8073C44.8989 29.4249 44.9953 29.005 44.9947 28.5797Z" fill="#526471"/>
<path d="M59.6794 35.3361V42.0659C59.6794 43.1704 58.7831 44.068 57.6773 44.068H44.7129V35.3361H59.6794Z" fill="#FFC035"/>
<g opacity="0.2">
<path d="M51.2027 20.932H49.0395L50.6619 23.8773V28.5797C50.6619 28.9631 50.5845 29.33 50.4448 29.6638C50.1579 30.3532 49.6044 30.9029 48.9112 31.1885C49.2438 31.3257 49.6082 31.4018 49.9916 31.4018C51.171 31.4018 52.1828 30.6845 52.6081 29.6638C52.7478 29.33 52.8252 28.9631 52.8252 28.5797V23.8773L51.2027 20.932ZM44.9947 28.5797C44.9947 29.0202 44.8932 29.4366 44.7129 29.8073V44.0679H46.8762V31.2381C45.7793 30.8496 44.9947 29.806 44.9947 28.5797Z" fill="black"/>
</g>
<path d="M31.7446 10.207H24.2379C24.1032 10.207 23.974 10.1535 23.8788 10.0583C23.7836 9.96306 23.7301 9.8339 23.7301 9.69922C23.7301 9.56454 23.7836 9.43537 23.8788 9.34014C23.974 9.24491 24.1032 9.19141 24.2379 9.19141H31.7446C31.8793 9.19141 32.0085 9.24491 32.1037 9.34014C32.1989 9.43537 32.2524 9.56454 32.2524 9.69922C32.2524 9.8339 32.1989 9.96306 32.1037 10.0583C32.0085 10.1535 31.8793 10.207 31.7446 10.207ZM19.3718 10.207H17.3481C17.2135 10.207 17.0843 10.1535 16.9891 10.0583C16.8938 9.96306 16.8403 9.8339 16.8403 9.69922C16.8403 9.56454 16.8938 9.43537 16.9891 9.34014C17.0843 9.24491 17.2135 9.19141 17.3481 9.19141H19.3718C19.5065 9.19141 19.6356 9.24491 19.7309 9.34014C19.8261 9.43537 19.8796 9.56454 19.8796 9.69922C19.8796 9.8339 19.8261 9.96306 19.7309 10.0583C19.6356 10.1535 19.5065 10.207 19.3718 10.207ZM31.7446 55.8099H24.2379C24.1032 55.8099 23.974 55.7564 23.8788 55.6611C23.7836 55.5659 23.7301 55.4367 23.7301 55.3021C23.7301 55.1674 23.7836 55.0382 23.8788 54.943C23.974 54.8477 24.1032 54.7942 24.2379 54.7942H31.7446C31.8793 54.7942 32.0085 54.8477 32.1037 54.943C32.1989 55.0382 32.2524 55.1674 32.2524 55.3021C32.2524 55.4367 32.1989 55.5659 32.1037 55.6611C32.0085 55.7564 31.8793 55.8099 31.7446 55.8099Z" fill="#ECEFF0"/>
<path opacity="0.2" d="M10.9878 23.8773V28.5797C10.9878 29.9596 9.99376 31.1073 8.67852 31.3523C8.50967 31.3841 8.33448 31.4018 8.15421 31.4018V23.8773H10.9878Z" fill="url(#paint0_linear_16_372)"/>
<path opacity="0.2" d="M16.6556 23.8773V28.5797C16.6556 29.9596 15.6616 31.1073 14.3463 31.3523C14.1775 31.3841 14.0023 31.4018 13.822 31.4018V23.8773H16.6556Z" fill="url(#paint1_linear_16_372)"/>
<path opacity="0.2" d="M22.3234 23.8773V28.5797C22.3234 29.9596 21.3294 31.1073 20.0142 31.3523C19.8453 31.3841 19.6701 31.4018 19.4898 31.4018V23.8773H22.3234Z" fill="url(#paint2_linear_16_372)"/>
<path opacity="0.2" d="M27.9912 23.8773V28.5797C27.9912 29.9596 26.9972 31.1073 25.682 31.3523C25.5131 31.3841 25.3379 31.4018 25.1577 31.4018V23.8773H27.9912Z" fill="url(#paint3_linear_16_372)"/>
<path opacity="0.2" d="M33.6591 23.8773V28.5797C33.6591 29.9596 32.6651 31.1073 31.3498 31.3523C31.181 31.3841 31.0058 31.4018 30.8255 31.4018V23.8773H33.6591Z" fill="url(#paint4_linear_16_372)"/>
<path opacity="0.2" d="M39.3269 23.8773V28.5797C39.3269 29.9596 38.3329 31.1073 37.0176 31.3523C36.8488 31.3841 36.6736 31.4018 36.4933 31.4018V23.8773H39.3269Z" fill="url(#paint5_linear_16_372)"/>
<path opacity="0.2" d="M44.9947 23.8773V28.5797C44.9947 29.9596 44.0007 31.1073 42.6854 31.3523C42.5166 31.3841 42.3414 31.4018 42.1611 31.4018V23.8773H44.9947Z" fill="url(#paint6_linear_16_372)"/>
<path opacity="0.2" d="M50.6625 23.8773V28.5797C50.6625 29.9596 49.6685 31.1073 48.3533 31.3523C48.1844 31.3841 48.0092 31.4018 47.8289 31.4018V23.8773H50.6625Z" fill="url(#paint7_linear_16_372)"/>
<path opacity="0.2" d="M44.7129 29.8086V51.9175H15.4807L36.8646 31.3765C38.0986 31.2165 39.0838 30.2656 39.2882 29.0494L39.3567 28.9821C39.5522 30.3507 40.7329 31.4018 42.1611 31.4018C43.2847 31.4018 44.2546 30.7518 44.7129 29.8086Z" fill="url(#paint8_linear_16_372)"/>
<defs>
<linearGradient id="paint0_linear_16_372" x1="8.15421" y1="27.6396" x2="10.9878" y2="27.6396" gradientUnits="userSpaceOnUse">
<stop/>
<stop offset="1" stop-color="white" stop-opacity="0"/>
</linearGradient>
<linearGradient id="paint1_linear_16_372" x1="13.822" y1="27.6396" x2="16.6556" y2="27.6396" gradientUnits="userSpaceOnUse">
<stop/>
<stop offset="1" stop-color="white" stop-opacity="0"/>
</linearGradient>
<linearGradient id="paint2_linear_16_372" x1="19.4898" y1="27.6396" x2="22.3234" y2="27.6396" gradientUnits="userSpaceOnUse">
<stop/>
<stop offset="1" stop-color="white" stop-opacity="0"/>
</linearGradient>
<linearGradient id="paint3_linear_16_372" x1="25.1577" y1="27.6396" x2="27.9912" y2="27.6396" gradientUnits="userSpaceOnUse">
<stop/>
<stop offset="1" stop-color="white" stop-opacity="0"/>
</linearGradient>
<linearGradient id="paint4_linear_16_372" x1="30.8255" y1="27.6396" x2="33.6591" y2="27.6396" gradientUnits="userSpaceOnUse">
<stop/>
<stop offset="1" stop-color="white" stop-opacity="0"/>
</linearGradient>
<linearGradient id="paint5_linear_16_372" x1="36.4933" y1="27.6396" x2="39.3269" y2="27.6396" gradientUnits="userSpaceOnUse">
<stop/>
<stop offset="1" stop-color="white" stop-opacity="0"/>
</linearGradient>
<linearGradient id="paint6_linear_16_372" x1="42.1611" y1="27.6396" x2="44.9947" y2="27.6396" gradientUnits="userSpaceOnUse">
<stop/>
<stop offset="1" stop-color="white" stop-opacity="0"/>
</linearGradient>
<linearGradient id="paint7_linear_16_372" x1="47.8289" y1="27.6396" x2="50.6625" y2="27.6396" gradientUnits="userSpaceOnUse">
<stop/>
<stop offset="1" stop-color="white" stop-opacity="0"/>
</linearGradient>
<linearGradient id="paint8_linear_16_372" x1="27.2671" y1="35.962" x2="38.5375" y2="55.4828" gradientUnits="userSpaceOnUse">
<stop/>
<stop offset="1" stop-color="white" stop-opacity="0"/>
</linearGradient>
</defs>
</svg>
