<svg width="64" height="64" viewBox="0 0 64 64" fill="none" xmlns="http://www.w3.org/2000/svg">
<path d="M53 5H11L9.9 3.9C9.5 3.5 9.8 3 10.2 3H53.8C54.2 3 54.5 3.5 54.2 3.9L53 5Z" fill="#FFA726"/>
<path d="M53 5H11V57H53V5Z" fill="#FFB74D"/>
<path d="M54 61H10V58C10.4 57.6 10.6 57.4 11 57H53C53.4 57.4 53.6 57.6 54 58V61Z" fill="#FFCC80"/>
<path d="M32 6H14V54H32V6Z" fill="#37474F"/>
<path d="M24 11H14V12H24V11Z" fill="#FB8C00"/>
<path d="M24 18H14V19H24V18Z" fill="#CFD8DC"/>
<path d="M50 6H32V54H50V6Z" fill="#FFA726"/>
<path d="M48 8H34V52H48V8Z" fill="#FFB74D"/>
<path d="M49 28H48V32H49V28Z" fill="#4E342E"/>
<path d="M42 6H22V54H42V6Z" fill="#FFCC80"/>
<path d="M40 8H24V52H40V8Z" fill="#FFB74D"/>
<path d="M24 28H23V32H24V28Z" fill="#4E342E"/>
<path d="M22 7H16V11H22V7Z" fill="#FBE9E7"/>
<path d="M22 44H16V48H22V44Z" fill="#E6EE9C"/>
<path d="M22 48H14V54H22V48Z" fill="#FBE9E7"/>
<path d="M20 19.5H19V23.5H20V19.5Z" fill="#4E342E"/>
<path d="M18 38V24C18 23.2 18.7 22.5 19.5 22.5C20.3 22.5 21 23.2 21 24V38C21 38.8 18 38.8 18 38Z" fill="#027D0F"/>
</svg>
