<svg width="217" height="235" viewBox="0 0 217 235" fill="none" xmlns="http://www.w3.org/2000/svg">
<path d="M199.578 200.439H30.4403C32.2263 189.269 38.6262 179.924 47.3133 175.075C50.525 173.266 54.0657 172.075 57.7865 171.636C60.0895 162.722 64.0688 154.63 69.3172 147.831C79.4222 134.757 94.235 126.516 110.732 126.516C133.449 126.516 152.954 142.152 161.421 164.492C162.495 164.367 163.576 164.273 164.665 164.273C180.668 164.273 193.624 179.047 193.624 197.259C193.624 197.447 193.624 197.596 193.609 197.76C195.755 198.27 197.76 199.194 199.578 200.439Z" fill="#DCF4E6"/>
<path opacity="0.5" d="M81.2317 161.97C84.7645 166.075 117.296 133.081 104.348 136.543C91.3915 140.013 76.657 156.651 81.2317 161.97Z" fill="white"/>
<path d="M160.936 200.439H214.242C212.832 197.901 209.847 198.685 206.628 198.622C206.025 196.726 204.356 196.766 200.768 197.345C205.32 193.194 203.902 189.12 195.967 191.776C205.03 179.438 190.977 176.618 188.909 176.368C186.292 176.054 174.276 177.981 180.645 190.828C172.929 187.624 170.814 191.408 176.642 198.074C171.072 198.332 164.406 199.554 160.936 200.439ZM20.7583 200.439H113.873C107.834 199.037 95.316 197.376 89.6917 197.259C88.642 193.938 85.7202 194.008 79.4378 195.034C87.3965 187.781 84.9133 180.645 71.0327 185.298C86.8873 163.717 62.3142 158.782 58.6795 158.351C54.1048 157.803 33.088 161.163 44.227 183.637C30.7302 178.036 27.0407 184.655 37.224 196.303C27.495 196.758 24.0405 197.901 20.7583 200.439Z" fill="#93E5B6"/>
<path fill-rule="evenodd" clip-rule="evenodd" d="M200.236 82.2657C199.742 82.2657 199.272 82.3518 198.841 82.5163C198.645 82.297 198.363 82.1638 198.042 82.1638C197.893 82.1638 197.752 82.1952 197.627 82.25C197.557 81.3257 196.781 80.5972 195.841 80.5972C195.434 80.5972 195.05 80.7382 194.752 80.9653C194.556 80.699 194.243 80.5267 193.891 80.5267C193.828 80.5267 193.773 80.5345 193.718 80.5423C193.836 80.2603 193.906 79.9548 193.906 79.6337C193.906 78.3568 192.872 77.3228 191.595 77.3228C191.361 77.3228 191.126 77.362 190.914 77.4247C190.749 77.0643 190.381 76.8215 189.958 76.8215H189.927C189.935 76.7353 189.935 76.657 189.935 76.5708C189.935 74.2757 188.071 72.4113 185.775 72.4113C183.48 72.4113 181.616 74.2757 181.616 76.5708V76.6648C181.412 76.6178 181.209 76.5865 180.989 76.5865C180.558 76.5865 180.151 76.6962 179.799 76.8842C179.195 76.0538 178.216 75.5212 177.112 75.5212C175.271 75.5212 173.783 77.0095 173.783 78.8503C173.783 79.2107 173.837 79.5632 173.947 79.8843H173.845C172.937 79.8843 172.208 80.6207 172.208 81.5215C172.208 81.6312 172.216 81.733 172.239 81.8348H172.208C171.699 81.8348 171.276 82.2422 171.26 82.7513C171.119 82.7278 170.97 82.7122 170.822 82.7122C170.226 82.7122 169.678 82.9158 169.278 83.2918C168.213 84.3023 169.38 84.5608 170.5 84.5608H201.465C202.633 84.5608 204.301 84.7488 203.142 83.5268C202.413 82.7435 201.379 82.2657 200.236 82.2657ZM39.3547 48.1985C40.2163 48.1985 41.0388 48.3552 41.7987 48.6372C42.1433 48.2612 42.6368 48.0183 43.193 48.0183C43.4515 48.0183 43.6943 48.0653 43.9215 48.1593C44.0468 46.5378 45.3942 45.261 47.047 45.261C47.7677 45.261 48.4257 45.5038 48.9505 45.9033C49.2873 45.4412 49.8357 45.1357 50.4545 45.1357C50.5563 45.1357 50.6582 45.1435 50.76 45.1592C50.5485 44.6735 50.431 44.133 50.431 43.569C50.431 41.3365 52.2405 39.5192 54.4808 39.5192C54.896 39.5192 55.2955 39.5818 55.6793 39.6993C55.977 39.0727 56.6115 38.6418 57.3478 38.6418H57.4027C57.3948 38.493 57.387 38.352 57.387 38.2032C57.387 34.1847 60.6457 30.9338 64.6642 30.9338C68.6827 30.9338 71.9413 34.1925 71.9413 38.2032V38.3755C72.2938 38.2893 72.662 38.2423 73.038 38.2423C73.79 38.2423 74.5028 38.4303 75.1217 38.7593C76.1792 37.3102 77.8947 36.3702 79.8217 36.3702C83.0412 36.3702 85.6497 38.9787 85.6497 42.1982C85.6497 42.8327 85.5478 43.4437 85.3598 44.0077C85.4147 44.0077 85.4773 43.9998 85.5322 43.9998C87.1145 43.9998 88.3992 45.2845 88.3992 46.8668C88.3992 47.0548 88.3835 47.235 88.3443 47.4073H88.407C89.3 47.4073 90.0285 48.1202 90.0598 49.0053C90.3105 48.9583 90.5612 48.9348 90.8275 48.9348C91.8615 48.9348 92.8328 49.2952 93.53 49.9532C95.3943 51.7157 93.3577 52.1778 91.3993 52.1778H37.1927C35.1482 52.1778 32.2263 52.5147 34.2552 50.3762C35.5398 49.0367 37.3493 48.1985 39.3547 48.1985Z" fill="#DCF4E6"/>
<path d="M91.791 112.863C88.4305 109.416 74.072 110.191 70.923 111.124C67.774 112.056 61.8364 111.022 60.0974 107.27C60.0974 107.27 61.4055 113.333 71.2285 112.087C86.7698 110.113 91.791 112.863 91.791 112.863ZM140.225 119.396C146.46 125.983 166.153 123.955 170.469 119.779C170.469 119.779 169.145 124.37 154.278 124.644C141.87 124.871 140.225 119.396 140.225 119.396Z" fill="#DCF4E6"/>
<path d="M126.845 86.3077L114.774 89.8327L126.845 98.0577L138.916 89.8327L126.845 86.3077Z" fill="url(#paint0_linear_14_113)"/>
<path d="M126.845 72.521L114.774 80.7538L126.845 88.9788L138.916 80.7538L126.845 72.521Z" fill="#009444"/>
<path d="M126.845 88.9788V98.0577L114.774 90.099V80.746L126.845 88.9788Z" fill="#009444"/>
<path d="M138.916 80.746V90.099L126.845 98.0577V88.9788L138.916 80.746Z" fill="#097C3A"/>
<path opacity="0.25" d="M119.043 84.4277L131.506 75.623L134.255 77.503L122.145 85.775V94.9478L119.043 92.9111V84.4277Z" fill="#CDEEFF"/>
<path opacity="0.25" d="M135.039 84.1927L122.184 75.7405L119.435 77.6205L131.945 85.5322V94.7128L135.039 92.6762V84.1927Z" fill="#CDEEFF"/>
<path d="M145.99 58.2878C145.857 58.1703 127.809 78.9992 127.809 78.9992C127.809 78.9992 135 56.5018 134.835 56.4392C134.671 56.3843 126.845 79.8843 126.845 79.8843C126.845 79.8843 119.028 56.3843 118.855 56.4392C118.683 56.494 125.874 78.9992 125.874 78.9992C125.874 78.9992 107.826 58.1703 107.693 58.2878C107.56 58.3975 107.544 58.6012 107.661 58.7343L126.438 80.6363C126.501 80.7068 126.587 80.746 126.681 80.746C126.736 80.746 126.79 80.7303 126.837 80.7068H126.845C126.892 80.7303 126.947 80.746 127.002 80.746C127.096 80.746 127.182 80.7068 127.245 80.6363L146.021 58.7343C146.139 58.6012 146.123 58.3975 145.99 58.2878Z" fill="#11405C"/>
<path d="M146.319 58.8597C143.875 58.1625 141.133 57.5828 138.18 57.1677C135.924 56.8543 133.543 56.6193 131.075 56.5018C129.642 56.4235 128.177 56.3922 126.689 56.3922C125.2 56.3922 123.735 56.4313 122.302 56.5018C119.827 56.6193 117.453 56.8543 115.197 57.1677C112.244 57.5828 109.502 58.1625 107.058 58.8597C107.92 48.7625 116.38 40.843 126.696 40.843C136.997 40.8509 145.465 48.7704 146.319 58.8597Z" fill="#133A69"/>
<path d="M126.681 40.8508C124.519 40.8508 122.717 47.564 122.294 56.5018C119.819 56.6193 117.445 56.8543 115.189 57.1677C116.137 47.9008 120.923 40.8508 126.681 40.8508ZM138.18 57.1677C135.924 56.8543 133.543 56.6193 131.075 56.5018C130.652 47.564 128.843 40.8508 126.688 40.8508C132.446 40.8508 137.232 47.9008 138.18 57.1677Z" fill="#FFFEFC"/>
<path d="M124.284 85.869L119.913 81.4588L117.453 82.72L109.04 91.0547L109.628 91.65L113.999 96.0523L114.586 96.6477L122.991 88.3052L124.284 85.869ZM120.696 85.0543C120.438 84.7958 120.445 84.3728 120.704 84.1222C120.962 83.8637 121.378 83.8637 121.636 84.1222C121.895 84.3807 121.895 84.8037 121.636 85.0622C121.378 85.3128 120.955 85.305 120.696 85.0543Z" fill="#C3F7C8"/>
<path d="M114.649 92.1592C114.703 92.1043 114.743 92.0573 114.774 92.0103C114.797 91.9633 114.813 91.932 114.821 91.885C114.829 91.8537 114.821 91.8145 114.805 91.791C114.797 91.7597 114.774 91.7283 114.75 91.7048C114.696 91.65 114.625 91.6343 114.531 91.6422C114.445 91.6578 114.312 91.7049 114.147 91.791C114.069 91.8302 113.998 91.8615 113.912 91.8928C113.834 91.9242 113.756 91.9399 113.669 91.9477C113.591 91.9477 113.505 91.9398 113.427 91.9163C113.34 91.885 113.262 91.8302 113.184 91.7597C113.105 91.6813 113.051 91.5952 113.019 91.5012C112.988 91.4072 112.972 91.3132 112.988 91.2113C112.996 91.1173 113.027 91.0233 113.082 90.9137C113.129 90.8197 113.207 90.71 113.301 90.6238C113.419 90.5063 113.528 90.4202 113.638 90.3575C113.748 90.2948 113.834 90.2557 113.92 90.2322L114.116 90.6395C114.045 90.663 113.967 90.6944 113.889 90.7335C113.81 90.7727 113.732 90.8353 113.654 90.9137C113.56 91.0077 113.505 91.086 113.497 91.1487C113.481 91.2113 113.505 91.274 113.552 91.3288C113.583 91.3523 113.622 91.3758 113.654 91.3837C113.693 91.3837 113.732 91.3837 113.771 91.3758C113.81 91.368 113.865 91.3523 113.912 91.3288C113.959 91.3132 114.014 91.2818 114.069 91.2583C114.186 91.2035 114.296 91.1565 114.39 91.1252C114.492 91.0939 114.586 91.0703 114.672 91.0703C114.758 91.0703 114.837 91.086 114.915 91.1252C114.993 91.1644 115.072 91.2192 115.15 91.2975C115.307 91.4542 115.377 91.6344 115.354 91.8302C115.33 92.0339 115.213 92.2375 114.985 92.4647C114.907 92.543 114.837 92.5979 114.766 92.6527C114.696 92.6997 114.633 92.7467 114.57 92.778C114.508 92.8172 114.453 92.8407 114.406 92.8563C114.359 92.872 114.32 92.8877 114.28 92.8955L114.085 92.4882C114.163 92.4647 114.249 92.4255 114.343 92.3707C114.445 92.3393 114.547 92.261 114.649 92.1592ZM117.046 90.3497C116.959 90.3105 116.889 90.2713 116.803 90.2322C116.717 90.193 116.638 90.1538 116.552 90.1147L115.886 90.7805C115.925 90.8667 115.965 90.945 116.004 91.0312C116.043 91.1173 116.082 91.1957 116.121 91.274L115.73 91.6657C115.612 91.4228 115.502 91.1957 115.401 90.9763C115.307 90.7727 115.22 90.569 115.134 90.3732C115.048 90.1852 114.978 89.9972 114.907 89.8248C114.837 89.6447 114.774 89.4723 114.711 89.3L115.079 88.9397C115.252 89.0023 115.424 89.0728 115.604 89.1355C115.784 89.206 115.965 89.2844 116.153 89.3627C116.348 89.441 116.544 89.535 116.764 89.629C116.975 89.7308 117.202 89.8405 117.445 89.9502L117.046 90.3497ZM115.275 89.5037C115.291 89.535 115.314 89.582 115.338 89.6369C115.361 89.6995 115.393 89.7622 115.424 89.8405C115.463 89.911 115.495 90.005 115.542 90.0912C115.581 90.1852 115.628 90.2792 115.675 90.381L116.16 89.9032C116.059 89.8562 115.965 89.8092 115.878 89.77C115.784 89.723 115.698 89.6917 115.628 89.6525C115.549 89.6212 115.479 89.5898 115.424 89.5663C115.354 89.535 115.307 89.5115 115.275 89.5037ZM118.471 88.266L118.8 88.595L117.672 89.723L115.972 88.031L116.356 87.655L117.719 89.018L118.471 88.266ZM119.043 88.3522L117.351 86.6602L118.503 85.5165L118.824 85.8377L118.064 86.5975L118.393 86.9265L119.074 86.245L119.388 86.5583L118.706 87.232L119.114 87.6394L119.936 86.8247L120.257 87.1458L119.043 88.3522Z" fill="#0E4F0A"/>
<path d="M121.503 83.9733C121.581 83.895 124.166 80.981 126.579 80.2995C126.743 80.2525 127.088 80.7382 127.01 80.7538C124.816 81.1925 121.754 84.0673 121.683 84.1848C121.519 84.4512 121.166 84.318 121.503 83.9733Z" fill="#CDEEFF"/>
<path d="M166.497 185.172L145.763 181.475L149.718 151.583L167.845 153.165L166.497 185.172Z" fill="#365A82"/>
<path d="M167.845 153.165L168.667 153.87L169.271 153.29L170.908 183.237L169.302 183.605L166.498 185.172L167.845 153.165ZM154.364 156.314C154.364 156.745 154.113 157.097 153.808 157.097C153.502 157.097 153.251 156.745 153.251 156.314C153.251 155.883 153.502 155.531 153.808 155.531C154.113 155.531 154.364 155.883 154.364 156.314ZM161.382 156.651C161.382 157.074 161.14 157.411 160.842 157.411C160.544 157.411 160.301 157.074 160.301 156.651C160.301 156.228 160.544 155.891 160.842 155.891C161.14 155.891 161.382 156.236 161.382 156.651Z" fill="#133A69"/>
<path d="M153.494 156.291C153.283 157.513 153.079 158.735 152.867 159.957C152.687 161.006 152.46 162.064 152.421 163.129C152.35 165.048 153.283 166.67 155.053 167.453C155.954 167.853 156.949 167.994 157.928 167.978C158.664 167.97 159.526 167.908 159.988 167.257C160.513 166.521 159.988 165.777 159.471 165.205C158.868 164.539 157.442 163.975 157.497 162.941C157.536 162.228 158.084 161.696 158.539 161.218C158.915 160.818 159.267 160.403 159.596 159.965C160.184 159.173 161.124 157.983 161.014 156.933C160.983 156.659 160.552 156.659 160.583 156.933C160.685 157.826 159.847 158.891 159.346 159.589C158.821 160.317 158.147 160.912 157.607 161.625C157.199 162.166 156.917 162.871 157.16 163.537C157.395 164.202 158.077 164.539 158.594 164.962C158.954 165.26 159.306 165.612 159.565 166.004C159.988 166.662 159.643 167.242 158.946 167.445C158.069 167.704 156.917 167.563 156.048 167.336C154.066 166.819 152.797 165.291 152.844 163.223C152.867 162.127 153.118 161.03 153.298 159.949C153.502 158.766 153.698 157.583 153.901 156.393C153.948 156.134 153.533 156.024 153.494 156.291Z" fill="#CDEEFF"/>
<path d="M124.879 167.265L139.692 164.116L154.505 166.294L139.95 171.307L124.879 167.265Z" fill="#FFC035"/>
<path d="M140.358 186.394L154.771 182.869L154.505 166.294L139.903 169.396L140.358 186.394Z" fill="#FF9D0D"/>
<path opacity="0.5" d="M131.506 165.855L136.143 164.899L149.272 167.32L149.429 170.649L147.604 171.213L147.267 170.673L147.087 171.44L145.692 171.926L145.645 168.354L131.506 165.855ZM147.275 184.71L147.267 182.117L148.168 181.945L148.363 182.266L148.465 181.819L150.8 181.154L151.082 183.778L147.275 184.71Z" fill="#CDEEFF"/>
<path d="M124.879 167.265L125.357 184.295L140.358 186.394L139.903 169.396L124.879 167.265Z" fill="#FCB924"/>
<path d="M124.879 167.265L139.903 169.396C139.903 169.396 135.219 169.944 132.101 169.396C128.992 168.847 124.879 167.265 124.879 167.265Z" fill="#FEC13B"/>
<path d="M145.645 171.26L157.372 168.769L169.09 170.485L157.575 174.456L145.645 171.26Z" fill="#FFC035"/>
<path d="M157.896 186.394L169.302 183.606L169.09 170.485L157.536 172.944L157.896 186.394Z" fill="#FF9D0D"/>
<path opacity="0.5" d="M150.893 170.14L154.559 169.388L164.946 171.299L165.072 173.939L163.63 174.386L163.364 173.955L163.223 174.566L162.119 174.942L162.079 172.122L150.893 170.14ZM163.372 185.055L163.364 183.01L164.069 182.877L164.226 183.128L164.312 182.775L166.161 182.25L166.38 184.326L163.372 185.055Z" fill="#CDEEFF"/>
<path d="M145.645 171.26L146.029 184.734L157.896 186.394L157.536 172.944L145.645 171.26Z" fill="#FFC035"/>
<path d="M145.645 171.26L157.528 172.952C157.528 172.952 153.823 173.391 151.356 172.952C148.904 172.506 145.645 171.26 145.645 171.26Z" fill="#0E4F0A"/>
<path d="M176.415 162.15V160.717H169.772L171.683 149.507H169.278L167.68 160.717H156.917L157.662 149.507H155.233L154.81 160.717H144.055L143.632 149.507H141.204L141.948 160.717H131.185L129.587 149.507H127.174L129.086 160.717H122.443V162.15H129.328L130.958 171.683H123.218V173.117H131.208L133.026 183.747H134.467L132.955 173.117H142.77L143.475 183.747H144.932L144.525 173.117H154.34L153.941 183.747H155.398L156.103 173.117H165.918L164.406 183.747H165.847L167.665 173.117H175.647V171.683H167.908L169.537 162.15H176.415ZM132.752 171.683L131.396 162.15H142.05L142.684 171.683H132.752ZM144.478 171.683L144.118 162.15H154.763L154.403 171.683H144.478ZM166.122 171.683H156.197L156.831 162.15H167.485L166.122 171.683Z" fill="#2F627C"/>
<path d="M118.197 150.995L124.143 183.253C124.393 184.6 125.568 185.58 126.939 185.58H171.918C173.289 185.58 174.472 184.6 174.715 183.253L180.66 150.995C180.981 149.248 179.642 147.635 177.864 147.635H120.994C119.223 147.635 117.876 149.248 118.197 150.995ZM124.362 150.431H174.511C176.289 150.431 177.629 152.045 177.307 153.792L172.396 180.456C172.145 181.804 170.97 182.783 169.6 182.783H129.274C127.903 182.783 126.72 181.804 126.477 180.456L121.566 153.792C121.237 152.045 122.584 150.431 124.362 150.431Z" fill="#11405C"/>
<path d="M174.072 185.423C174.072 185.423 140.781 185.423 129.548 185.431C127.417 185.431 125.584 183.942 125.137 181.859L116.701 141.963L116.63 141.681C116.278 140.193 114.954 139.143 113.427 139.136L101.935 139.081L101.794 141.901L113.074 141.956C113.505 141.956 113.873 142.253 113.975 142.668L123.814 185.752C120.61 186.715 118.299 189.731 118.424 193.272C118.573 197.376 122.075 200.565 126.179 200.565H160.231C161.132 200.565 161.86 199.805 161.813 198.896C161.766 198.066 160.967 197.392 160.137 197.392H126.132C123.712 197.392 121.636 195.496 121.589 193.076C121.542 190.608 123.532 188.595 125.983 188.595H173.978C174.809 188.595 175.608 187.922 175.655 187.091C175.709 186.175 174.981 185.423 174.072 185.423Z" fill="#2F627C"/>
<path d="M157.278 196.037C156.361 194.792 154.889 193.992 153.228 193.992C151.567 193.992 150.087 194.792 149.178 196.037C148.559 196.875 148.199 197.909 148.199 199.021C148.199 201.802 150.447 204.05 153.236 204.05C156.017 204.05 158.273 201.802 158.273 199.021C158.265 197.909 157.897 196.875 157.278 196.037ZM153.228 202.022C151.575 202.022 150.243 200.682 150.243 199.029C150.243 197.384 151.575 196.045 153.228 196.045C154.881 196.045 156.22 197.384 156.22 199.029C156.22 200.674 154.881 202.022 153.228 202.022Z" fill="#11405C"/>
<path d="M156.22 199.029C156.22 200.682 154.881 202.022 153.228 202.022C151.575 202.022 150.243 200.682 150.243 199.029C150.243 197.384 151.575 196.045 153.228 196.045C154.881 196.037 156.22 197.384 156.22 199.029Z" fill="white"/>
<path d="M154.356 199.021C154.356 199.648 153.854 200.15 153.228 200.15C152.609 200.15 152.1 199.64 152.1 199.021C152.1 198.403 152.601 197.893 153.228 197.893C153.847 197.901 154.356 198.403 154.356 199.021ZM138.838 196.037C137.921 194.792 136.449 193.992 134.788 193.992C133.127 193.992 131.647 194.792 130.738 196.037C130.119 196.875 129.759 197.909 129.759 199.021C129.759 201.802 132.007 204.05 134.796 204.05C137.585 204.05 139.833 201.802 139.833 199.021C139.825 197.909 139.457 196.875 138.838 196.037ZM134.788 202.022C133.135 202.022 131.804 200.682 131.804 199.029C131.804 197.384 133.135 196.045 134.788 196.045C136.441 196.045 137.773 197.384 137.773 199.029C137.773 200.674 136.433 202.022 134.788 202.022Z" fill="#11405C"/>
<path d="M137.773 199.029C137.773 200.682 136.441 202.022 134.788 202.022C133.135 202.022 131.804 200.682 131.804 199.029C131.804 197.384 133.135 196.045 134.788 196.045C136.441 196.045 137.773 197.384 137.773 199.029Z" fill="white"/>
<path d="M135.908 199.021C135.908 199.648 135.407 200.149 134.78 200.149C134.161 200.149 133.652 199.64 133.652 199.021C133.652 198.403 134.154 197.893 134.78 197.893C135.407 197.901 135.908 198.403 135.908 199.021ZM96.8827 141.674C96.8592 142.214 97.29 142.653 97.8148 142.637L109.4 142.316L111.022 142.261C111.382 142.253 111.648 141.822 111.578 141.368L111.288 139.449C111.233 139.104 110.998 138.846 110.724 138.838L97.9167 138.313C97.4153 138.29 97.0002 138.681 96.9767 139.19L96.8827 141.674Z" fill="#11405C"/>
<path d="M155.507 98.841L148.465 100.854L148.363 104.105L152.202 117.547L153.157 117.281L160.2 115.268L161.155 114.993L157.317 101.559L155.507 98.841ZM152.617 102.084C152.202 102.201 151.771 101.959 151.653 101.551C151.536 101.136 151.771 100.705 152.194 100.58C152.601 100.462 153.04 100.698 153.165 101.121C153.275 101.536 153.04 101.966 152.617 102.084Z" fill="#1A6D31"/>
<path d="M153.197 105.907L153.04 105.358L153.996 105.084L154.16 105.633C155.037 105.57 155.648 106.087 155.93 107.097L156.001 107.332L154.889 107.654L154.795 107.348C154.646 106.815 154.372 106.674 154.003 106.776C153.627 106.878 153.479 107.144 153.627 107.677C154.066 109.204 156.377 108.625 156.988 110.763C157.278 111.774 157.019 112.549 156.244 112.957L156.4 113.497L155.445 113.771L155.288 113.223C154.395 113.294 153.792 112.769 153.502 111.75L153.361 111.241L154.466 110.928L154.63 111.508C154.787 112.04 155.077 112.166 155.445 112.056C155.821 111.946 156.001 111.696 155.844 111.155C155.406 109.62 153.095 110.199 152.492 108.076C152.194 107.082 152.429 106.322 153.197 105.907Z" fill="#0E4F0A"/>
<path d="M47.0783 80.2212L43.7492 97.3683C43.7492 97.3683 54.5357 102.82 54.9273 102.429C55.319 102.037 62.1262 85.822 62.1262 85.822L47.0783 80.2212Z" fill="#C3F7C8"/>
<path d="M52.593 87.7803C53.345 88.1093 53.6348 88.7752 53.0943 89.5742C52.5695 90.381 51.7313 90.5533 50.9793 90.2322C50.2195 89.9032 49.9297 89.2295 50.4623 88.4305C50.995 87.6315 51.841 87.4592 52.593 87.7803ZM55.0762 88.9553L56.3765 89.5193L49.9375 93.3263L48.6372 92.7623L55.0762 88.9553ZM51.4023 88.8378C51.183 89.1747 51.2222 89.3862 51.4572 89.488C51.6922 89.5898 51.9507 89.5037 52.17 89.1668C52.3893 88.83 52.3423 88.6107 52.1073 88.5088C51.8723 88.4148 51.6217 88.501 51.4023 88.8378ZM54.05 92.0573C54.802 92.3863 55.084 93.0522 54.5435 93.8512C54.0187 94.658 53.1805 94.8303 52.4285 94.5092C51.6765 94.1802 51.3867 93.5143 51.9272 92.7153C52.452 91.9085 53.298 91.7283 54.05 92.0573ZM52.8515 93.107C52.6322 93.4438 52.6713 93.6553 52.9142 93.765C53.1413 93.8668 53.3998 93.7807 53.6192 93.4438C53.8385 93.107 53.7915 92.8877 53.5643 92.7937C53.3215 92.684 53.0708 92.778 52.8515 93.107Z" fill="#0E4F0A"/>
<path d="M160.458 41.3757L165.44 53.439C165.44 53.439 174.409 52.3972 174.495 51.9898C174.582 51.5825 172.145 38.6732 172.145 38.6732L160.458 41.3757Z" fill="#C3F7C8"/>
<path d="M167.015 43.8197C167.618 43.7178 168.072 44.0155 168.072 44.7283C168.072 45.449 167.625 45.9033 167.022 46.0052C166.411 46.1148 165.957 45.8172 165.957 45.0965C165.957 44.3837 166.411 43.9293 167.015 43.8197ZM169.043 43.5298L170.085 43.3497L167.641 48.3787L166.599 48.5588L169.043 43.5298ZM166.709 44.9712C166.709 45.2688 166.819 45.3863 167.015 45.355C167.203 45.3237 167.328 45.167 167.328 44.8615C167.328 44.5638 167.21 44.4463 167.022 44.4777C166.819 44.5168 166.709 44.6735 166.709 44.9712ZM169.678 45.8877C170.281 45.7858 170.727 46.0835 170.727 46.8042C170.727 47.5248 170.281 47.9792 169.678 48.081C169.075 48.1828 168.62 47.8852 168.62 47.1723C168.62 46.4517 169.083 45.9895 169.678 45.8877ZM169.365 47.0392C169.365 47.3368 169.474 47.4543 169.67 47.423C169.85 47.3917 169.975 47.235 169.975 46.9295C169.975 46.6318 169.858 46.5143 169.67 46.5457C169.49 46.577 169.365 46.7415 169.365 47.0392Z" fill="#0E4F0A"/>
<path d="M97.1412 104.974L100.815 115.244L116.09 109.016L117.852 112.541C117.852 112.541 103.525 123.203 99.2562 122.02C96.3265 121.205 93.0835 111.531 93.0835 111.531L97.1412 104.974Z" fill="#D7A28E"/>
<path d="M99.5303 111.648L100.314 113.834L98.2143 114.797C98.2143 114.797 95.974 117.437 96.0915 118.487L94.047 114.124C94.047 114.124 97.9245 111.766 99.5303 111.648ZM100.823 115.518C100.823 115.518 101.426 118.127 100.823 118.377C100.22 118.628 100.47 115.894 100.823 115.518Z" fill="#C18C7C"/>
<path d="M119.255 104.763C119.545 104.841 119.639 105.1 119.521 105.437C119.278 106.165 118.965 106.854 118.675 107.591C120.054 106.988 121.55 106.361 122.921 105.758C123.03 105.914 122.991 106.126 122.905 106.259C122.819 106.392 122.693 106.502 122.56 106.596C122.059 106.98 121.534 107.332 120.994 107.654C122.004 107.356 122.725 107.121 123.688 106.878C123.751 107.019 123.735 107.246 123.634 107.364C123.54 107.481 123.289 107.622 123.156 107.693C122.552 108.03 122.059 108.304 121.448 108.641C122.161 108.484 122.929 108.39 123.641 108.233C123.712 108.327 123.688 108.539 123.626 108.633C123.563 108.735 123.461 108.805 123.359 108.86C122.827 109.142 122.098 109.44 121.667 109.651C122.161 109.596 122.67 109.58 123.164 109.526C123.281 109.972 122.678 109.996 122.349 110.168C120.97 110.897 119.529 111.664 118.15 112.385C118.15 112.385 117.108 112.933 116.286 113.278C116.27 113.231 114.711 110.082 114.562 109.823C114.946 109.635 115.753 109.22 115.753 109.22C116.286 107.246 117.343 107.003 119.255 104.763Z" fill="#D7A28E"/>
<path d="M120.602 107.802C120.618 107.834 120.79 107.802 120.986 107.724C121.182 107.646 121.331 107.552 121.323 107.512C121.307 107.481 121.135 107.512 120.939 107.591C120.743 107.677 120.594 107.771 120.602 107.802ZM120.955 108.852C120.97 108.883 121.143 108.852 121.338 108.774C121.534 108.695 121.683 108.601 121.675 108.562C121.66 108.531 121.487 108.562 121.291 108.64C121.096 108.719 120.947 108.813 120.955 108.852ZM121.205 109.855C121.221 109.886 121.393 109.855 121.589 109.776C121.785 109.698 121.934 109.604 121.926 109.565C121.91 109.533 121.738 109.565 121.542 109.643C121.338 109.729 121.19 109.823 121.205 109.855ZM120.602 110.09C120.633 110.074 120.485 109.643 120.265 109.118C120.046 108.593 119.834 108.186 119.803 108.202C119.772 108.217 119.921 108.648 120.14 109.173C120.359 109.69 120.571 110.105 120.602 110.09ZM117.845 109.588C117.845 109.596 117.884 109.588 117.947 109.565C118.009 109.541 118.103 109.518 118.197 109.447C118.401 109.33 118.652 109.087 118.777 108.742C118.91 108.398 118.887 108.061 118.847 107.834C118.808 107.606 118.738 107.473 118.722 107.473C118.706 107.481 118.73 107.614 118.753 107.841C118.769 108.061 118.769 108.382 118.652 108.695C118.534 109.009 118.323 109.244 118.142 109.369C118.056 109.439 117.978 109.479 117.923 109.518C117.868 109.557 117.845 109.58 117.845 109.588ZM115.902 109.432C115.894 109.432 115.886 109.479 115.894 109.549C115.894 109.627 115.902 109.737 115.926 109.878C115.965 110.152 116.074 110.528 116.27 110.904C116.654 111.664 117.202 112.118 117.226 112.087C117.249 112.064 116.764 111.586 116.396 110.849C116.004 110.113 115.941 109.432 115.902 109.432Z" fill="#C18C7C"/>
<path d="M95.2455 114.124C97.4153 114.124 101.496 112.925 100.815 111.5C99.2483 108.202 98.3397 102.922 97.9558 102.664C97.572 102.413 96.2247 101.716 96.2247 101.716C96.2247 101.716 93.8668 107.082 93.7807 107.857C93.6945 108.633 95.2455 114.124 95.2455 114.124Z" fill="#1A6D31"/>
<path d="M100.776 112.205C100.298 113.035 98.3945 113.709 96.7103 113.983V106.024C96.7103 106.032 97.6582 111.617 100.776 112.205Z" fill="#0E4F0A"/>
<path d="M76.187 148.567C76.187 148.567 70.6018 162.714 66.2073 164.187C59.9642 166.278 36.8793 166.599 36.8793 166.599C36.8793 166.599 33.4875 166.333 36.1195 163.137L61.288 157.622C61.288 157.622 64.0453 147.047 65.3222 143.82C66.599 140.593 76.187 148.567 76.187 148.567Z" fill="#D7A28E"/>
<path d="M67.3667 148.818L67.868 150.431C67.868 150.431 71.2285 151.826 71.5183 152.899C71.8003 153.972 69.9987 161.32 66.0585 163.192C62.1262 165.056 49.538 166.161 49.538 166.161C49.538 166.161 66.552 164.735 67.5077 164.422C68.4633 164.108 76.0617 150.541 76.0617 150.541L67.3667 148.818Z" fill="#C18C7C"/>
<path d="M61.5857 157.685C62.0792 157.489 64.3117 159.15 64.1785 159.432C64.0453 159.714 61.9225 158.273 61.9225 158.273C61.9225 158.273 63.9748 161.884 62.6902 161.688C61.4055 161.492 60.395 158.155 61.5857 157.685Z" fill="#C18C7C"/>
<path d="M35.4145 163.239C35.4145 163.239 31.7563 163.709 31.7093 164.453C31.6623 165.197 31.6623 165.785 31.819 165.793C31.9757 165.8 33.3622 165.887 33.3622 165.887C33.3622 165.887 35.297 164.594 35.4145 163.239Z" fill="#11405C"/>
<path d="M37.2475 166.623C37.2475 166.623 32.0697 172.991 29.8842 173.328C29.1478 173.446 28.9598 172.028 29.7902 170.03C30.6205 168.025 35.4928 161.147 36.5503 162.996C36.5503 162.996 34.8427 164.915 37.2475 166.623Z" fill="#11405C"/>
<path d="M34.1142 164.093C34.1142 164.093 32.3282 166.38 32.4613 165.918C32.5945 165.456 33.0723 164.516 34.1142 164.093ZM36.9028 166.396C35.4772 167.328 33.0175 170.532 32.2577 170.579C31.3725 170.641 34.6703 165.879 35.9785 164.735C35.8532 165.291 36.4015 166.215 36.9028 166.396Z" fill="#2F627C"/>
<path d="M88.9945 105.499C89.8718 110.207 76.3358 112.863 74.5498 102.852C66.4032 102.084 70.7663 92.8877 76.4612 91.9477C84.2945 82.7827 103.862 82.3362 98.2457 95.6763C96.4518 99.9298 93.8982 100.259 89.0337 100.157L88.9945 105.499Z" fill="#11405C"/>
<path d="M77.4012 145.778C77.4012 145.778 83.895 159.346 86.0022 165.573C86.0022 165.573 88.2503 186.042 87.4905 192.073C87.4905 192.073 90.005 198.34 91.3602 193.687C91.7127 188.063 95.2455 165.597 95.2455 165.597L89.7308 144.854L77.4012 145.778Z" fill="#D7A28E"/>
<path d="M90.9136 149.28L91.4777 151.45C91.4777 151.45 83.143 152.852 83.3467 153.526C83.5503 154.199 84.4277 160.677 86.0413 161.5C87.655 162.322 90.4672 162.26 89.6447 162.612C88.8222 162.965 86.6836 163.693 87.1223 164.046C87.561 164.398 93.8668 166.067 91.7283 166.419C89.5898 166.772 87.3886 166.098 87.6236 167.007C87.8586 167.915 88.1328 191.556 88.1328 191.556L87.5688 190.781L85.9865 165.565L78.5605 147.862L90.9136 149.28Z" fill="#C18C7C"/>
<path d="M97.572 106.157C97.5642 107.434 98.1125 112.73 97.9088 113.278C96.9923 115.706 90.3105 117.884 89.8483 123.759C89.3783 129.626 92.2062 150.557 92.2062 150.557C92.2062 150.557 67.0768 153.612 61.241 145.896C61.241 145.896 67.2413 130.229 74.4637 123.226C81.686 116.2 80.2917 111.194 80.0645 106.972C79.8373 102.766 87.5688 99.8593 87.5688 99.8593C87.5688 99.8593 93.342 102.499 95.7625 101.732C97.5642 101.168 97.572 106.157 97.572 106.157Z" fill="#1A6D31"/>
<path d="M81.357 118.487C84.271 125.255 86.4643 127.339 87.8352 128.467C89.206 129.595 83.3232 126.367 83.2605 128.467C83.1978 130.566 85.6575 130.942 85.9552 132.219C86.2528 133.488 79.7668 130.629 78.3725 126.877C76.9782 123.124 78.7563 127.065 81.8035 126.877C84.8507 126.689 81.1612 120.203 81.357 118.487ZM66.8105 144.541C66.2778 143.005 65.0402 138.415 65.8783 138.305C66.7243 138.188 66.8105 144.541 66.8105 144.541ZM63.8417 143.084C64.5937 138.901 67.1238 148.066 67.1238 148.066C67.1238 148.066 63.0192 147.658 63.8417 143.084ZM86.7228 114.351C89.2452 115.996 91.8772 114.351 91.8772 114.351C91.8772 114.351 91.5717 116.129 94.5405 115.62C94.5405 115.62 92.5273 116.662 91.18 115.714C91.18 115.714 90.146 116.168 89.112 116.231C88.078 116.286 86.7228 114.351 86.7228 114.351Z" fill="#0E4F0A"/>
<path d="M87.5845 190.789C87.5845 190.789 85.3285 192.959 85.822 194.243C86.3077 195.52 84.0987 198.622 84.5608 198.434C84.741 198.364 85.5478 198.646 86.5897 199.069C86.8247 199.163 87.3495 197.447 87.608 197.557C89.1903 198.223 90.7727 200.909 91.8067 201.411C91.8067 201.411 96.3735 203.98 96.7025 202.39C97.0315 200.8 92.4882 197.753 92.3863 196.789C92.2845 195.826 91.4385 192.7 91.4385 192.7C91.4385 192.7 89.3157 193.609 87.5845 190.789Z" fill="#11405C"/>
<path d="M89.394 100.87C89.4802 99.7653 90.3027 96.0758 90.3653 95.2377C90.3888 94.987 93.2245 97.0628 93.2245 97.0628C93.2245 97.0628 94.0705 101.097 94.1253 102.303C94.3525 102.523 93.4517 105.711 92.3942 105.64C91.3445 105.562 89.3548 101.356 89.394 100.87Z" fill="#D7A28E"/>
<path d="M93.2637 97.2822L93.7807 99.8985C93.7807 99.8985 90.8275 96.914 91.1408 96.3187C91.4542 95.7312 93.2637 97.2822 93.2637 97.2822Z" fill="#C18C7C"/>
<path d="M96.3422 97.29C93.3655 99.8593 90.4437 95.4883 90.3105 95.5118C90.1774 95.5353 90.0599 95.6215 89.9267 95.6606C89.4175 95.8251 88.9867 95.0105 88.783 94.517C88.1329 92.9268 89.441 93.0835 89.7152 93.4125C89.911 93.3733 88.2347 90.5063 92.026 88.9788C93.9609 88.5245 94.7207 89.4018 95.41 90.2791C96.5537 91.7283 97.3605 94.0391 97.0785 95.8643C97.0002 96.444 96.7887 96.9061 96.3422 97.29Z" fill="#D7A28E"/>
<path d="M89.2452 93.6083L89.4097 94.1019H89.0336L89.394 94.2977C89.5271 94.4778 89.5115 94.7598 89.5115 94.7598C89.7935 94.3603 89.4488 93.7885 89.2452 93.6083ZM95.7625 89.5977C95.7625 89.5977 95.1593 90.71 94.0705 90.2322C92.9816 89.7543 91.6187 88.877 91.4072 90.3497C91.3288 90.9215 89.8953 90.9137 90.2791 91.9085C90.6238 92.825 89.9737 93.7572 89.4488 93.248C88.6498 92.4803 88.36 90.6003 90.2322 89.2373C92.1122 87.8743 95.2846 88.3679 95.7625 89.5977Z" fill="#11405C"/>
<path d="M91.2113 92.2923C91.3288 92.4098 91.7988 92.1357 92.1043 91.838C92.402 91.5404 92.4255 91.3289 92.3002 91.2035C92.1827 91.086 91.9712 91.1017 91.6657 91.3994C91.368 91.7049 91.0938 92.1748 91.2113 92.2923ZM95.551 91.1957C95.5118 91.3602 94.9635 91.368 94.5562 91.2662C94.141 91.1643 94.0235 90.992 94.0627 90.8275C94.1018 90.663 94.2898 90.569 94.705 90.6709C95.1123 90.7727 95.5902 91.0312 95.551 91.1957Z" fill="#11405C"/>
<g opacity="0.1">
<path opacity="0.5" d="M92.2532 93.6867C92.2767 93.8747 92.5508 93.9922 92.8563 93.953C93.1618 93.9138 93.3968 93.7258 93.3733 93.5378C93.3498 93.3498 93.0757 93.2323 92.7702 93.2715C92.4568 93.3185 92.2297 93.4987 92.2532 93.6867Z" fill="#C18C7C"/>
</g>
<g opacity="0.1">
<path opacity="0.5" d="M95.1672 93.0835C95.1907 93.2715 95.4648 93.389 95.7703 93.3498C96.0758 93.3107 96.3108 93.1227 96.2873 92.9347C96.2638 92.7467 95.9897 92.6292 95.6842 92.6683C95.3708 92.7153 95.1437 92.9034 95.1672 93.0835Z" fill="#C18C7C"/>
</g>
<path d="M95.3395 94.8538C95.0888 94.9478 95.034 95.1593 94.2663 94.8538C93.4986 94.5483 93.2166 94.3055 93.0913 94.705C92.966 95.1045 94.4778 96.4048 95.3473 95.7625C96.209 95.128 95.504 94.7912 95.3395 94.8538Z" fill="white"/>
<path d="M91.9633 93.3968C92.0182 93.3968 92.0808 93.3733 92.1122 93.3185C92.5587 92.6997 93.06 92.5038 93.06 92.496C93.154 92.4568 93.201 92.3472 93.1618 92.2532C93.1227 92.1592 93.013 92.1122 92.919 92.1435C92.8955 92.1513 92.3158 92.3785 91.7988 93.0913C91.7362 93.1775 91.7597 93.295 91.838 93.3498C91.885 93.3812 91.9242 93.3968 91.9633 93.3968ZM94.423 93.9608C94.4465 93.9608 94.47 93.953 94.4857 93.9452C94.7677 93.8355 94.8538 93.671 94.8695 93.5457C94.9008 93.3185 94.752 93.0835 94.4152 92.825C94 92.5038 93.9373 91.9868 93.9373 91.9868C93.9295 91.885 93.8355 91.8067 93.7337 91.8223C93.6318 91.8302 93.5535 91.9242 93.5692 92.026C93.5692 92.0573 93.6475 92.7075 94.188 93.1227C94.4465 93.3263 94.5092 93.4517 94.5013 93.4908C94.5013 93.5065 94.4622 93.5535 94.3525 93.5927C94.2585 93.6318 94.2037 93.7337 94.2428 93.8355C94.2742 93.9138 94.3447 93.9608 94.423 93.9608ZM95.8017 92.3863C95.8487 92.3863 95.9035 92.3707 95.9348 92.3315C96.0053 92.2532 96.0053 92.1357 95.927 92.0652C95.9035 92.0417 95.41 91.5717 94.5013 91.6657C94.3995 91.6735 94.3212 91.7675 94.3368 91.8693C94.3447 91.9712 94.4387 92.0495 94.5405 92.0338C95.2612 91.9633 95.6528 92.3158 95.6685 92.3315C95.7155 92.3707 95.7625 92.3863 95.8017 92.3863Z" fill="#11405C"/>
<path opacity="0.5" d="M94.7598 96.7182C94.9087 96.7182 95.0653 96.6869 95.2298 96.6085C95.3238 96.5615 95.363 96.4518 95.316 96.3578C95.269 96.2638 95.1593 96.2247 95.0653 96.2717C94.7363 96.4283 94.4622 96.303 94.1802 96.1698L94.1488 96.1542C94.0548 96.1072 93.9452 96.1542 93.8982 96.2482C93.8512 96.3422 93.8982 96.4518 93.9922 96.4988L94.0235 96.5145C94.2193 96.6007 94.47 96.7182 94.7598 96.7182Z" fill="#C18C7C"/>
<path d="M87.7255 100.235C87.7255 100.235 88.1955 103.439 87.3182 103.909C86.433 104.371 87.7255 100.235 87.7255 100.235Z" fill="#0E4F0A"/>
<path d="M111.374 136.316C112.518 136.966 113.239 138.008 113.513 138.454C113.983 139.222 114.758 142.41 114.758 142.41C114.758 142.41 114.343 142.59 114.163 142.567C113.865 142.528 113.521 142.097 113.294 141.541C113.38 141.956 113.458 142.723 113.458 142.723C113.458 142.723 112.933 142.802 112.769 142.731C112.542 142.629 112.267 142.222 112.142 141.862C112.173 142.159 112.244 142.661 112.244 142.661C112.244 142.661 111.649 142.684 111.492 142.582C111.194 142.387 110.967 141.83 110.803 141.337C110.873 141.713 110.842 142.379 110.842 142.379C110.842 142.379 110.301 142.293 110.16 142.206C109.604 141.862 109.017 139.95 109.017 139.95C107.129 139.911 106.251 139.081 105.695 138.446C105.562 138.29 108.782 135.438 108.782 135.438C108.782 135.438 110.521 135.822 111.374 136.316Z" fill="#D7A28E"/>
<path d="M112.581 139.426C112.565 139.433 112.612 139.551 112.69 139.739C112.761 139.927 112.855 140.185 112.949 140.483C113.137 141.071 113.262 141.548 113.294 141.541C113.325 141.533 113.247 141.039 113.059 140.444C112.965 140.146 112.855 139.888 112.769 139.708C112.667 139.52 112.589 139.418 112.581 139.426ZM111.5 139.833C111.484 139.841 111.523 139.95 111.578 140.138C111.641 140.342 111.711 140.585 111.797 140.851C111.962 141.415 112.103 141.87 112.134 141.862C112.166 141.854 112.079 141.384 111.907 140.82C111.821 140.538 111.735 140.287 111.656 140.107C111.57 139.927 111.508 139.825 111.5 139.833ZM110.481 140.334C110.45 140.342 110.497 140.616 110.591 140.953C110.685 141.282 110.787 141.548 110.818 141.541C110.85 141.533 110.803 141.259 110.709 140.922C110.615 140.593 110.513 140.326 110.481 140.334Z" fill="#C18C7C"/>
<path d="M92.6997 120.978L88.1877 110.066L81.7643 113.254C84.1378 119.372 87.044 126.109 87.044 126.109L106.024 138.658L108.86 135.446L92.6997 120.978Z" fill="#D7A28E"/>
<path d="M88.9162 111.876L89.3862 112.957L83.8559 118.487L82.5634 115.283C82.5634 115.291 86.6602 113.607 88.9162 111.876ZM92.4804 121.096C92.4804 121.096 91.8145 123.688 91.1565 123.634C90.4985 123.579 91.9947 121.276 92.4804 121.096Z" fill="#C18C7C"/>
<path d="M81.7643 115.581C82.0542 116.074 89.8718 111.742 89.3313 110.779C87.0048 106.666 86.2685 100.431 86.2685 100.431C86.2685 100.431 80.323 102.076 79.7198 103.431C78.6545 105.805 81.0358 114.343 81.7643 115.581Z" fill="#1A6D31"/>
<path d="M87.0048 105.64C87.0048 105.64 89.1355 110.575 88.9318 111.178C88.7203 111.782 82.861 115.361 82.0698 115.291C81.2786 115.22 79.9861 109.698 79.9861 109.698C79.9861 109.698 80.4875 114.962 81.31 115.98C82.1325 116.999 89.0336 112.487 89.6995 111.531C90.3653 110.575 87.0048 105.64 87.0048 105.64Z" fill="#0E4F0A"/>
<defs>
<linearGradient id="paint0_linear_14_113" x1="126.845" y1="96.3773" x2="126.845" y2="82.7903" gradientUnits="userSpaceOnUse">
<stop offset="0.037" stop-color="#D4C95E"/>
<stop offset="1" stop-color="#FF9444"/>
</linearGradient>
</defs>
</svg>
