<svg width="312" height="344" viewBox="0 0 312 344" fill="none" xmlns="http://www.w3.org/2000/svg">
<path d="M183.67 294.178H278.869C276.356 289.643 271.017 291.049 265.269 290.928C264.195 287.538 261.218 287.609 254.804 288.653C262.929 281.244 260.394 273.965 246.225 278.709C262.409 256.676 237.32 251.641 233.615 251.2C228.947 250.643 207.487 254.075 218.861 277.019C205.082 271.3 201.312 278.06 211.711 289.954C201.776 290.42 189.872 292.602 183.67 294.178Z" fill="#93E5B6"/>
<path d="M62.3773 294.178H158.658C152.412 292.727 139.471 291.009 133.649 290.887C132.561 287.453 129.546 287.525 123.051 288.582C131.28 281.078 128.712 273.705 114.361 278.511C130.753 256.195 105.342 251.095 101.59 250.649C96.8614 250.085 75.1258 253.561 86.6463 276.799C72.69 271.006 68.8719 277.853 79.4048 289.9C69.3424 290.371 65.772 291.552 62.3773 294.178Z" fill="#93E5B6"/>
<path d="M298.242 166.337C298.053 168.176 297.741 169.993 297.306 171.776C297.228 172.144 297.139 172.512 297.039 172.88C295.423 178.887 292.48 184.549 288.423 189.787C288.189 190.088 287.955 190.389 287.71 190.69C259.947 225.118 183.679 240.499 121.955 214.775C121.387 214.541 120.818 214.296 120.25 214.051C115.078 211.822 110.018 209.303 105.103 206.483C81.3746 192.852 65.9158 174.239 57.8911 154.646C57.8911 154.646 57.8799 154.646 57.8799 154.635C57.4787 153.643 57.0997 152.651 56.732 151.648C44.2267 117.788 53.6224 81.6098 80.6501 63.4316C80.9621 63.2087 81.2853 62.9969 81.6197 62.7964C88.3961 58.405 96.2426 55.1283 105.103 53.2782C107.109 52.8547 109.071 52.5426 111.01 52.3197C111.378 52.264 111.746 52.2306 112.114 52.1972C140.802 49.2993 162.068 66.7085 179.443 85.1208C179.711 85.3995 179.967 85.6781 180.223 85.9456C186.131 92.2316 191.569 98.6179 196.719 104.302C196.964 104.581 197.22 104.859 197.465 105.138C209.302 118.134 219.522 127.273 229.898 123.004C267.949 107.356 303.302 117.13 298.242 166.337Z" fill="#DCF4E6"/>
<path d="M229.9 73.2618C216.975 55.8081 197.526 74.7479 209.176 91.8376C220.826 108.927 261.266 115.615 229.9 73.2618Z" fill="#DCF4E6"/>
<path d="M297.306 171.776C297.228 172.144 297.139 172.512 297.039 172.88C272.452 164.688 229.988 159.773 159.916 174.908C116.093 184.36 82.8569 178.664 61.1456 157.967C60.0199 156.886 58.9389 155.783 57.8912 154.646C57.8912 154.646 57.88 154.646 57.88 154.635C57.4788 153.643 57.0999 152.651 56.7321 151.648C58.3482 153.565 60.0758 155.393 61.9148 157.154C83.3475 177.583 116.238 183.189 159.671 173.816C229.865 158.669 272.53 163.573 297.306 171.776Z" fill="white"/>
<path d="M288.423 189.787C288.189 190.088 287.955 190.389 287.71 190.69C264.07 179.222 228.873 173.08 182.174 193.755C159.248 203.909 139.186 210.551 121.955 214.775C121.387 214.541 120.818 214.296 120.25 214.051C137.737 209.86 158.211 203.162 181.728 192.741C228.94 171.821 264.55 178.129 288.423 189.787Z" fill="white"/>
<path d="M197.465 105.138C187.858 114.578 174.339 122.38 155.347 125.322C151.68 125.88 148.113 126.169 144.647 126.169C131.941 126.169 120.629 122.358 110.91 114.801C94.2698 101.861 85.3088 80.1387 80.6501 63.4316C80.9622 63.2087 81.2853 62.9969 81.6197 62.7964C86.2116 79.3808 95.0611 101.07 111.59 113.921C123.727 123.35 138.383 126.816 155.18 124.219C173.926 121.31 187.245 113.608 196.719 104.302C196.964 104.581 197.22 104.859 197.465 105.138Z" fill="white"/>
<path d="M180.223 85.9454C172.867 96.266 162.101 104.881 146.586 105.272H145.873C138.896 105.272 132.777 102.675 127.684 97.5255C117.53 87.2716 113.005 68.3579 111.01 52.3196C111.378 52.2639 111.746 52.2304 112.114 52.1971C114.075 68.057 118.511 86.6921 128.475 96.7453C133.513 101.839 139.621 104.313 146.553 104.157C161.722 103.767 172.254 95.2852 179.443 85.1205C179.711 85.3992 179.967 85.6778 180.223 85.9454Z" fill="white"/>
<path d="M98.7999 80.6868L85.5275 84.5606L98.7999 93.6046L112.072 84.5606L98.7999 80.6868Z" fill="url(#paint0_linear_26_536)"/>
<path d="M98.7999 65.5343L85.5275 74.5804L98.7999 83.6225L112.072 74.5804L98.7999 65.5343Z" fill="#009444"/>
<path d="M98.7999 83.6283V93.6106L85.5333 84.8553V74.5785L98.7999 83.6283Z" fill="#009444"/>
<path d="M112.072 74.5785V84.8553L98.7999 93.6106V83.6283L112.072 74.5785Z" fill="#097C3A"/>
<path opacity="0.25" d="M90.224 78.6257L103.92 68.9458L106.948 71.009L93.6336 80.1031V90.1893L90.224 87.9509V78.6257Z" fill="#CDEEFF"/>
<path opacity="0.25" d="M107.811 78.3598L93.6758 69.071L90.6517 71.136L104.406 79.8372V89.9274L107.811 87.687V78.3598Z" fill="#CDEEFF"/>
<path d="M119.847 49.8848C119.699 49.7538 99.8555 72.654 99.8555 72.654C99.8555 72.654 107.765 47.9199 107.58 47.8564C107.399 47.7986 98.7999 73.6306 98.7999 73.6306C98.7999 73.6306 90.2026 47.7986 90.0197 47.8564C89.8329 47.9199 97.7385 72.654 97.7385 72.654C97.7385 72.654 77.8992 49.7538 77.7529 49.8848C77.6045 50.0082 77.5871 50.2277 77.7182 50.378L98.3567 74.4571C98.4222 74.5341 98.5243 74.5804 98.6226 74.5804C98.6803 74.5804 98.7421 74.563 98.7921 74.5341C98.7999 74.5322 98.7999 74.5322 98.7999 74.5322C98.7999 74.5322 98.8018 74.5322 98.8018 74.5341C98.8578 74.563 98.9174 74.5804 98.9771 74.5804C99.0774 74.5804 99.1737 74.5341 99.243 74.4571L119.883 50.3781C120.012 50.2277 119.993 50.0082 119.847 49.8848Z" fill="#DBA12C"/>
<path d="M120.213 50.5167C117.526 49.7461 114.511 49.1162 111.261 48.6559C108.782 48.3072 106.166 48.0549 103.448 47.9219C101.874 47.8392 100.26 47.7987 98.6226 47.7987C96.9853 47.7987 95.3748 47.8392 93.7971 47.9219C91.0791 48.0549 88.4631 48.3072 85.9839 48.6559C82.7343 49.1164 79.7195 49.7461 77.0323 50.5167C77.9762 39.4191 87.2842 30.7122 98.6226 30.7122C109.961 30.7122 119.269 39.4193 120.213 50.5167Z" fill="#DBA12C"/>
<path d="M98.6226 30.7122C96.2475 30.7122 94.2653 38.0919 93.7971 47.9219C91.0791 48.0549 88.4631 48.3072 85.9839 48.6559C87.03 38.4656 92.2888 30.7122 98.6226 30.7122Z" fill="#F2CD33"/>
<path d="M111.261 48.6559C108.782 48.3072 106.166 48.0549 103.448 47.9219C102.98 38.0919 100.998 30.7122 98.6226 30.7122C104.956 30.7122 110.215 38.4656 111.261 48.6559Z" fill="#F2CD33"/>
<path d="M95.9819 80.2071L91.1757 75.3604L88.4751 76.7436L79.2287 85.9091L79.876 86.5679L84.6782 91.4107L85.3273 92.0656L94.5718 82.8963L95.9819 80.2071ZM92.0407 79.3096C91.7575 79.0225 91.7634 78.562 92.0464 78.2827C92.3315 77.9957 92.788 77.9957 93.075 78.2827C93.3582 78.5698 93.3582 79.0321 93.0712 79.3132C92.7862 79.5946 92.3258 79.5907 92.0407 79.3096Z" fill="#F2CD33"/>
<path d="M85.3949 87.1188C85.4546 87.061 85.5008 87.0071 85.5297 86.9571C85.5586 86.907 85.5741 86.8685 85.5818 86.8223C85.5875 86.7837 85.5818 86.7452 85.5684 86.7184C85.5567 86.6837 85.5337 86.6508 85.5066 86.6259C85.4431 86.5642 85.3661 86.545 85.2678 86.5584C85.1695 86.5757 85.0309 86.6277 84.8421 86.7221C84.7593 86.7647 84.6745 86.7992 84.5821 86.834C84.4954 86.8648 84.4067 86.8879 84.3162 86.8918C84.2275 86.8955 84.137 86.8839 84.0484 86.8571C83.9579 86.8262 83.8655 86.7665 83.7825 86.6837C83.6959 86.5989 83.6341 86.5006 83.5976 86.4023C83.5591 86.3022 83.5475 86.1983 83.5591 86.0864C83.5687 85.9805 83.6035 85.8764 83.6631 85.7608C83.719 85.655 83.8018 85.5412 83.9059 85.443C84.033 85.3158 84.1524 85.2196 84.2737 85.1541C84.3912 85.0887 84.4933 85.0462 84.5877 85.0194L84.7995 85.4662C84.7205 85.495 84.6377 85.5298 84.5529 85.5702C84.4662 85.6164 84.3835 85.6782 84.2928 85.7706C84.1927 85.8707 84.131 85.9574 84.1175 86.0267C84.1002 86.096 84.1233 86.1635 84.1754 86.2231C84.212 86.2521 84.2504 86.2752 84.287 86.2829C84.3313 86.2867 84.3718 86.2867 84.4199 86.2752C84.4661 86.2695 84.5221 86.2464 84.574 86.2251C84.6279 86.2059 84.6838 86.1769 84.7474 86.148C84.8803 86.0844 84.9977 86.0364 85.1018 86.0017C85.2154 85.9631 85.3137 85.944 85.4081 85.944C85.5005 85.944 85.593 85.9592 85.6777 86.0036C85.7605 86.0441 85.853 86.1058 85.9377 86.1942C86.1131 86.3676 86.1862 86.568 86.1593 86.7837C86.1342 87.0033 86.0013 87.2287 85.7528 87.4772C85.668 87.562 85.591 87.6275 85.5159 87.6852C85.4427 87.7372 85.3714 87.7854 85.304 87.8201C85.2384 87.8627 85.1768 87.8875 85.1248 87.9089C85.0728 87.928 85.0266 87.9454 84.9899 87.9551L84.7761 87.5061C84.8589 87.4812 84.9552 87.4387 85.0593 87.3809C85.1695 87.323 85.2793 87.2344 85.3949 87.1188Z" fill="#DBA12C"/>
<path d="M88.0243 85.1347C87.9338 85.0904 87.851 85.0461 87.7546 85.0037C87.6622 84.9575 87.5735 84.9152 87.4811 84.8708L86.753 85.5991C86.7992 85.6897 86.8416 85.7821 86.8859 85.8707C86.9321 85.9631 86.9746 86.0556 87.0188 86.1366L86.5854 86.57C86.4544 86.3023 86.3369 86.0499 86.2271 85.8129C86.123 85.5857 86.0248 85.3621 85.9324 85.1503C85.8419 84.9422 85.7609 84.738 85.68 84.5455C85.6049 84.3507 85.5336 84.1563 85.4662 83.9676L85.8688 83.5707C86.0557 83.6362 86.2463 83.7133 86.4429 83.7844C86.6394 83.8596 86.8417 83.9444 87.0497 84.0369C87.2616 84.1255 87.4813 84.2237 87.7182 84.3296C87.9493 84.4415 88.1978 84.5589 88.4694 84.686L88.0243 85.1347ZM86.0787 84.2004C86.0941 84.235 86.1192 84.2832 86.1481 84.3506C86.1751 84.4182 86.2117 84.4912 86.2463 84.5722C86.2868 84.6531 86.3253 84.7534 86.3715 84.8496C86.4177 84.9536 86.4639 85.0576 86.5179 85.1655L87.0496 84.6379C86.9398 84.582 86.8339 84.5357 86.7356 84.4895C86.6336 84.4415 86.5412 84.4029 86.4583 84.3624C86.3716 84.3278 86.2965 84.293 86.2329 84.2681C86.1692 84.237 86.1192 84.2119 86.0787 84.2004Z" fill="#DBA12C"/>
<path d="M89.5962 82.8463L89.9565 83.2065L88.714 84.4451L86.8474 82.5843L87.2693 82.1682L88.77 83.6688L89.5962 82.8463Z" fill="#DBA12C"/>
<path d="M90.2223 82.9348L88.3595 81.0779L89.6212 79.8199L89.9718 80.1725L89.1339 81.0086L89.4979 81.3745L90.2434 80.629L90.5844 80.9757L89.8389 81.7174L90.2859 82.1644L91.1913 81.2667L91.5439 81.6173L90.2223 82.9348Z" fill="#DBA12C"/>
<path d="M92.9228 78.1232C93.0055 78.0379 95.8476 74.8313 98.5047 74.0832C98.6819 74.0333 99.062 74.5633 98.9771 74.5805C96.5696 75.0639 93.1966 78.2221 93.1187 78.3558C92.9473 78.6493 92.5591 78.4984 92.9228 78.1232Z" fill="#CDEEFF"/>
<path d="M128.253 298.594C123.291 298.594 119.254 294.557 119.254 289.595V103.69C119.254 98.7281 123.291 94.6909 128.253 94.6909H221.747C226.709 94.6909 230.746 98.7281 230.746 103.69V289.596C230.746 294.557 226.709 298.594 221.747 298.594L128.253 298.594Z" fill="#2F627C"/>
<path d="M128.253 292.022C126.915 292.022 125.827 290.933 125.827 289.595V103.69C125.827 102.352 126.915 101.263 128.253 101.263H221.747C223.085 101.263 224.173 102.352 224.173 103.69V289.596C224.173 290.933 223.085 292.022 221.747 292.022L128.253 292.022Z" fill="#CDEEFF"/>
<path d="M208.488 113.561L219.682 120.596L219.799 120.867V120.875L219.974 121.273C221.337 124.27 226.661 126.819 231.83 126.819C234.624 126.819 236.677 126.086 237.719 124.939V120.867L237.553 120.604L222.011 113.561H208.488Z" fill="#097C3A"/>
<path d="M210.413 126.818H215.364C219.228 126.818 221.53 123.341 220.545 121.057L208.488 113.56H195.094L202.328 121.011C202.919 123.296 206.549 126.818 210.413 126.818Z" fill="#FFC439"/>
<path d="M181.7 113.562L183.989 121.197C184.25 124.226 188.722 126.822 193.946 126.822C199.183 126.822 202.973 123.904 202.19 120.875L195.095 113.562H181.7Z" fill="#097C3A"/>
<path d="M172.526 126.818H177.478C181.341 126.818 184.622 124.384 184.425 122.099L181.699 113.559H168.305L165.693 121.623C165.496 123.908 168.663 126.818 172.526 126.818Z" fill="#FFC439"/>
<path d="M154.909 113.562L147.067 121.668C146.284 124.697 150.834 126.822 156.058 126.822C161.295 126.822 165.5 124.448 165.761 121.419L168.305 113.562H154.909Z" fill="#097C3A"/>
<path d="M134.64 126.818H139.591C143.455 126.818 146.476 124.066 147.067 121.782L154.91 113.559H141.517L128.437 121.777C127.452 124.062 130.776 126.818 134.64 126.818Z" fill="#FFC439"/>
<path d="M112.281 120.891V124.93C113.313 126.078 115.376 126.819 118.17 126.819C123.407 126.819 128.76 124.221 130.065 121.194L130.201 120.883V120.875L130.318 120.596H130.327L141.513 113.56H127.472L112.456 120.604L112.281 120.891Z" fill="#097C3A"/>
<path d="M219.799 120.604V131.918C219.799 135.966 223.819 139.257 228.764 139.257C233.718 139.257 237.719 135.966 237.719 131.918V120.867L237.553 120.604H219.799Z" fill="#009444"/>
<path d="M183.962 120.6V131.921C183.962 135.966 187.98 139.255 192.922 139.255C197.876 139.255 201.882 135.966 201.882 131.921V120.6H183.962V120.6Z" fill="#009444"/>
<path d="M148.123 120.6V131.921C148.123 135.966 152.142 139.255 157.083 139.255C162.037 139.255 166.043 135.966 166.043 131.921V120.6H148.123V120.6Z" fill="#009444"/>
<path d="M201.882 120.596V130.372C201.882 135.276 205.893 139.251 210.842 139.251C215.79 139.251 219.801 135.276 219.801 130.372V120.596H201.882Z" fill="#DBA12C"/>
<path d="M166.043 130.372C166.043 135.276 170.055 139.251 175.003 139.251C179.951 139.251 183.962 135.276 183.962 130.372V120.596H166.043V130.372Z" fill="#DBA12C"/>
<path d="M130.204 130.372C130.204 135.276 134.215 139.251 139.164 139.251C144.112 139.251 148.123 135.276 148.123 130.372V120.596H130.204V130.372Z" fill="#DBA12C"/>
<path d="M112.281 120.891V131.918C112.281 135.966 116.301 139.257 121.246 139.257C126.2 139.257 130.201 135.966 130.201 131.918V120.604H112.456L112.281 120.891Z" fill="#009444"/>
<path d="M141.018 102.785H127.505V113.561H141.018V102.785Z" fill="#009444"/>
<path d="M154.531 102.785H141.018V113.561H154.531V102.785Z" fill="#DBA12C"/>
<path d="M168.044 102.785H154.531V113.561H168.044V102.785Z" fill="#009444"/>
<path d="M181.557 102.785H168.044V113.561H181.557V102.785Z" fill="#DBA12C"/>
<path d="M195.07 102.785H181.557V113.561H195.07V102.785Z" fill="#009444"/>
<path d="M208.583 102.785H195.07V113.561H208.583V102.785Z" fill="#DBA12C"/>
<path d="M222.096 102.785H208.583V113.561H222.096V102.785Z" fill="#009444"/>
<path d="M197.406 188.148H196.179V199.043H197.406V188.148Z" fill="#11405C"/>
<path d="M152.851 188.148H151.624V199.043H152.851V188.148Z" fill="#11405C"/>
<path d="M210.594 177.217V189.395H139.005V177.217C139.005 176.276 139.775 175.503 140.719 175.503H208.885C209.834 175.503 210.594 176.276 210.594 177.217Z" fill="#FFC439"/>
<path d="M139.005 216.956V196.584H210.597V216.956C210.597 217.897 209.829 218.67 208.883 218.67H140.716C139.77 218.67 139.005 217.897 139.005 216.956Z" fill="#FFC439"/>
<g opacity="0.35">
<path d="M153.546 180.572C153.453 180.26 153.256 180.097 153.026 180.006C152.791 179.926 152.519 179.913 152.227 179.954C151.566 180.045 151.297 180.278 151.343 180.606C151.54 181.986 156.692 180.391 157.162 183.726C157.46 185.854 155.833 187.136 153.316 187.49C150.893 187.831 149.11 186.642 148.818 184.993L151.695 184.587C151.803 184.91 152.015 185.122 152.295 185.246C152.561 185.357 152.886 185.394 153.181 185.352C153.933 185.246 154.396 184.933 154.334 184.504C154.138 183.111 148.996 184.809 148.508 181.307C148.233 179.36 149.777 178.142 152.07 177.82C154.619 177.458 155.96 178.592 156.402 180.172L153.546 180.572Z" fill="#DBA12C"/>
<path d="M159.269 178.166H167.755V180.591H165.031V187.426H161.993V180.591H159.269V178.166Z" fill="#DBA12C"/>
<path d="M179.659 182.744C179.659 185.892 177.537 187.666 174.794 187.666C171.891 187.666 169.945 185.869 169.945 182.715C169.945 179.807 171.912 177.918 174.794 177.918C178.103 177.918 179.659 180.296 179.659 182.744ZM172.985 182.744C172.985 183.923 173.344 185.404 174.794 185.404C176.107 185.404 176.619 184.274 176.619 182.744C176.619 181.477 176.107 180.143 174.771 180.177C173.396 180.177 172.985 181.568 172.985 182.744Z" fill="#DBA12C"/>
<path d="M185.274 184.197V187.426H182.234V178.166H186.607C189.694 178.166 190.713 178.996 190.713 180.795C190.713 181.868 190.234 182.77 189.156 183.062C190.134 183.421 190.721 183.651 190.721 185.518C190.721 186.728 190.689 187.141 191.049 187.141V187.426H187.972C187.898 187.216 187.82 186.624 187.82 185.804C187.82 184.592 187.611 184.197 186.197 184.197H185.274V184.197ZM185.274 182.162H186.471C187.407 182.162 187.905 181.932 187.905 181.289C187.905 180.632 187.394 180.319 186.685 180.319H185.274V182.162H185.274Z" fill="#DBA12C"/>
<path d="M193.724 187.426V178.166H201.275V180.319H196.762V181.648H200.582V183.809H196.762V185.264H201.456V187.426H193.724Z" fill="#DBA12C"/>
</g>
<path d="M152.752 180.05C152.651 179.737 152.463 179.569 152.227 179.484C151.995 179.399 151.723 179.389 151.428 179.43C150.764 179.523 150.5 179.755 150.547 180.089C150.744 181.459 155.893 179.864 156.363 183.201C156.663 185.334 155.035 186.611 152.514 186.97C150.097 187.306 148.313 186.12 148.019 184.468L150.899 184.065C151.005 184.388 151.219 184.605 151.493 184.721C151.762 184.838 152.088 184.871 152.385 184.827C153.132 184.721 153.595 184.417 153.535 183.98C153.341 182.591 148.202 184.293 147.711 180.784C147.437 178.836 148.98 177.615 151.273 177.292C153.817 176.933 155.161 178.07 155.603 179.647L152.752 180.05Z" fill="#DBA12C"/>
<path d="M158.467 177.641H166.959V180.074H164.232V186.906H161.195V180.074H158.467V177.641Z" fill="#DBA12C"/>
<path d="M178.861 182.219C178.861 185.37 176.736 187.149 173.995 187.149C171.095 187.149 169.149 185.347 169.149 182.191C169.149 179.283 171.118 177.393 173.995 177.393C177.302 177.393 178.861 179.771 178.861 182.219ZM172.183 182.219C172.183 183.406 172.545 184.882 173.995 184.882C175.311 184.882 175.823 183.752 175.823 182.219C175.823 180.955 175.311 179.619 173.972 179.66C172.595 179.66 172.183 181.051 172.183 182.219Z" fill="#DBA12C"/>
<path d="M184.472 183.674V186.906H181.435V177.641H185.812C188.898 177.641 189.914 178.479 189.914 180.278C189.914 181.345 189.439 182.242 188.36 182.537C189.337 182.897 189.927 183.134 189.927 184.998C189.927 186.205 189.888 186.616 190.25 186.616V186.906H187.171C187.099 186.694 187.019 186.104 187.019 185.28C187.019 184.075 186.817 183.675 185.401 183.675L184.472 183.674ZM184.472 181.637H185.67C186.607 181.637 187.112 181.408 187.112 180.766C187.112 180.107 186.597 179.802 185.889 179.802H184.472V181.637Z" fill="#DBA12C"/>
<path d="M192.928 186.906V177.641H200.479V179.802H195.963V181.125H199.783V183.287H195.963V184.739H200.657V186.905H192.928V186.906Z" fill="#DBA12C"/>
<path d="M142.239 179.513C142.032 179.513 141.825 179.419 141.691 179.234C141.463 178.936 141.523 178.507 141.825 178.277C142.094 178.07 168.841 157.868 172.626 152.184C172.669 152.122 172.721 152.065 172.781 152.024C172.985 151.864 174.789 150.54 175.87 151.623C176.521 152.254 197.051 169.348 207.813 178.295C208.104 178.535 208.144 178.973 207.903 179.267C207.658 179.559 207.223 179.595 206.931 179.352C203.726 176.685 175.585 153.283 174.893 152.595C174.797 152.487 174.184 152.706 173.703 153.047C169.557 159.045 143.757 178.541 142.652 179.371C142.528 179.466 142.384 179.513 142.239 179.513Z" fill="#11405C"/>
<path d="M143.842 178.996C143.842 179.88 143.123 180.596 142.239 180.596C141.355 180.596 140.636 179.88 140.636 178.996C140.636 178.111 141.355 177.393 142.239 177.393C143.123 177.393 143.842 178.111 143.842 178.996Z" fill="#2F627C"/>
<path d="M209.09 178.996C209.09 179.88 208.373 180.596 207.489 180.596C206.605 180.596 205.886 179.88 205.886 178.996C205.886 178.111 206.605 177.393 207.489 177.393C208.373 177.393 209.09 178.111 209.09 178.996Z" fill="#2F627C"/>
<path d="M177.232 154.821C177.232 156.16 176.144 157.25 174.802 157.25C173.455 157.25 172.369 156.16 172.369 154.821C172.369 153.479 173.455 152.388 174.802 152.388C176.144 152.389 177.232 153.479 177.232 154.821Z" fill="#2F627C"/>
<g opacity="0.5">
<path d="M160.409 207.862C160.409 211.717 157.813 213.896 154.458 213.896C150.901 213.896 148.523 211.688 148.523 207.831C148.523 204.272 150.932 201.955 154.458 201.955C158.506 201.955 160.409 204.871 160.409 207.862ZM152.237 207.862C152.237 209.31 152.68 211.125 154.458 211.125C156.066 211.125 156.697 209.734 156.697 207.862C156.697 206.319 156.066 204.683 154.43 204.724C152.742 204.724 152.237 206.425 152.237 207.862Z" fill="#DBA12C"/>
<path d="M163.511 213.596V202.258H168.973C172.235 202.258 173.812 203.755 173.812 206.079C173.812 208.526 172.362 210.07 169.1 210.07H167.231V213.596H163.511ZM168.771 207.42C169.637 207.42 170.271 207.071 170.271 206.094C170.271 205.042 169.069 204.902 168.283 204.902H167.231V207.42H168.771Z" fill="#DBA12C"/>
<path d="M176.767 213.596V202.258H186.016V204.902H180.484V206.521H185.16V209.168H180.484V210.946H186.233V213.596L176.767 213.596Z" fill="#DBA12C"/>
<path d="M197.142 208.444L196.999 205.861V202.258H200.562V213.596H197.082L193.037 207.42L193.176 210.005V213.596H189.614V202.258H193.096L197.142 208.444Z" fill="#DBA12C"/>
</g>
<path d="M159.78 207.56C159.78 211.416 157.185 213.596 153.83 213.596C150.268 213.596 147.892 211.388 147.892 207.531C147.892 203.972 150.301 201.655 153.83 201.655C157.873 201.656 159.78 204.566 159.78 207.56ZM151.607 207.56C151.607 209.007 152.046 210.817 153.83 210.817C155.432 210.817 156.066 209.434 156.066 207.56C156.066 206.019 155.432 204.375 153.796 204.429C152.108 204.429 151.607 206.125 151.607 207.56Z" fill="#DBA12C"/>
<path d="M162.877 213.288V201.955H168.347C171.604 201.955 173.179 203.452 173.179 205.784C173.179 208.222 171.731 209.762 168.471 209.762H166.597V213.288L162.877 213.288ZM168.138 207.12C169.004 207.12 169.637 206.771 169.637 205.8C169.637 204.742 168.438 204.6 167.649 204.6H166.597V207.12H168.138Z" fill="#DBA12C"/>
<path d="M176.138 213.288V201.955H185.382V204.6H179.853V206.226H184.532V208.868H179.853V210.646H185.602V213.288L176.138 213.288Z" fill="#DBA12C"/>
<path d="M196.511 208.144L196.369 205.561V201.955H199.931V213.288H196.449L192.403 207.12L192.545 209.698V213.288H188.983V201.955H192.463L196.511 208.144Z" fill="#DBA12C"/>
<path d="M123.974 166.636L123.534 173.697C123.534 173.697 122.678 175.801 121.165 175.048C119.652 174.295 118.317 172.296 118.317 172.296L119.702 165.765L123.974 166.636Z" fill="#D7A28E"/>
<path d="M126.05 162.379C126.05 162.379 127.193 164.036 127.046 164.456C126.9 164.876 126.143 164.827 126.143 164.827L126.05 162.379Z" fill="#C18C7C"/>
<path d="M117.668 161.312C117.668 161.312 117.676 161.756 117.721 162.424C117.457 162.433 120.042 169.179 121.721 169.243C123.178 169.298 125.04 169.254 125.794 167.843C126.643 166.254 126.277 163.125 125.976 160.184C125.976 160.184 122.91 156.037 117.668 161.312Z" fill="#D7A28E"/>
<path d="M124.682 165.99C124.671 165.947 126.462 165.527 126.461 165.734C126.459 165.942 126.209 166.649 126.084 166.662C125.959 166.674 124.893 166.845 124.682 165.99Z" fill="#DCF4E6"/>
<path d="M124.819 162.607C124.809 162.927 124.969 163.191 125.177 163.197C125.385 163.204 125.561 162.95 125.571 162.63C125.581 162.31 125.42 162.046 125.213 162.039C125.005 162.033 124.829 162.287 124.819 162.607Z" fill="#11405C"/>
<path d="M125.492 161.107C125.492 161.107 125.559 161.356 125.508 161.428C125.458 161.499 125.18 161.417 124.892 161.599C124.603 161.78 124.348 161.917 124.348 161.917C124.348 161.917 124.092 161.645 124.274 161.414C124.456 161.184 125.456 160.884 125.492 161.107Z" fill="#11405C"/>
<path d="M125.239 162.47C125.245 162.578 125.337 162.661 125.446 162.656C125.554 162.65 125.637 162.558 125.631 162.45C125.625 162.342 125.533 162.258 125.425 162.264C125.317 162.27 125.234 162.362 125.239 162.47Z" fill="#DCF4E6"/>
<path d="M125.571 168.182C125.571 168.182 124.677 169.437 123.818 169.137L123.793 171.072L121.312 168.608C121.312 168.608 124.228 168.925 125.571 168.182Z" fill="#C18C7C"/>
<path d="M113.082 159.947C113.082 159.947 111.709 158.507 111.888 157.276C112.067 156.045 112.826 155.148 113.908 155.223C111.497 157.674 113.082 159.947 113.082 159.947Z" fill="#11405C"/>
<path d="M127.043 155.772C127.876 153.25 126.068 151.975 124.26 153.157C124.135 153.239 124.031 153.341 123.918 153.434C123.875 153.257 123.808 153.084 123.703 152.923C123.202 152.156 122.174 151.941 121.407 152.443C121.35 152.48 121.303 152.525 121.252 152.568C120.397 152.338 119.456 152.449 118.657 152.972C118.054 153.366 117.636 153.932 117.406 154.561C116.556 154.529 115.689 154.747 114.923 155.248C112.959 156.533 112.665 161.029 116.31 162.039C113.493 164.62 118.012 168.415 119.888 167.563C119.9 167.563 119.908 167.566 119.92 167.566C124.815 167.566 122.912 161.41 122.912 161.41C122.905 161.39 122.889 161.371 122.88 161.35C123.665 161.663 125.323 160.829 126.204 160.327C127.003 160.368 127.821 160.177 128.542 159.705C130.35 158.523 128.225 157.58 127.043 155.772Z" fill="#11405C"/>
<path d="M111.524 286.148L110.289 297.368L105.746 295.739L105.258 285.446L111.524 286.148Z" fill="#D7A28E"/>
<path d="M105.203 292.599C104.496 292.076 104.617 300.439 105.203 300.662C105.788 300.885 120.729 301.275 122.11 300.661C123.491 300.047 123.575 297.266 121.273 296.795C118.971 296.323 114.145 295.483 112.68 293.645C112.68 293.645 111.667 291.192 111.291 290.962C110.916 290.732 110.789 292.599 110.789 292.599C110.789 292.599 106.897 293.854 105.203 292.599Z" fill="#FFC439"/>
<path d="M119.783 296.5C119.816 296.591 119.639 296.717 119.465 296.957C119.289 297.2 119.135 297.596 119.03 298.077C118.828 299.046 118.813 299.909 118.637 299.924C118.48 299.947 118.204 299.067 118.432 297.946C118.549 297.392 118.825 296.889 119.16 296.649C119.499 296.411 119.766 296.433 119.783 296.5Z" fill="#11405C"/>
<path d="M104.717 299.295C104.7 299.588 104.696 300.887 105.224 300.991C105.751 301.094 122.627 301.222 122.738 300.991C122.849 300.759 122.885 299.899 122.941 299.735C122.996 299.57 104.717 299.295 104.717 299.295Z" fill="#11405C"/>
<path d="M113.845 296.146C113.441 295.689 114.336 294.629 114.598 294.702C114.859 294.775 114.242 296.596 113.845 296.146Z" fill="#11405C"/>
<path d="M115.299 296.616C114.896 296.16 115.791 295.099 116.052 295.173C116.314 295.246 115.696 297.066 115.299 296.616Z" fill="#11405C"/>
<path d="M116.814 296.993C116.411 296.537 117.306 295.476 117.567 295.549C117.829 295.622 117.212 297.443 116.814 296.993Z" fill="#11405C"/>
<path d="M109.074 298.123C109.871 298.123 110.518 297.477 110.518 296.679C110.518 295.882 109.871 295.235 109.074 295.235C108.276 295.235 107.63 295.882 107.63 296.679C107.63 297.477 108.276 298.123 109.074 298.123Z" fill="#DBA12C"/>
<path d="M125.17 209.52C125.17 209.52 113.142 286.674 112.843 289.104C112.544 291.533 104.175 289.183 104.175 289.183L105.258 232.737C105.258 232.737 103.078 216.143 104.006 206.682C107.939 203.072 125.17 209.52 125.17 209.52Z" fill="#11405C"/>
<path d="M167.557 151.455C168.389 151.358 168.486 152.206 168.486 152.206L168.785 154.796L174.547 151.582C174.547 151.582 175.136 151.998 174.891 152.44C174.779 152.642 172.116 154.507 172.116 154.507L175.966 152.363C175.966 152.363 176.534 152.897 176.199 153.21C176.039 153.36 172.847 155.886 172.847 155.886L176.39 153.823C176.39 153.823 176.652 154.631 176.528 154.747C175.892 155.348 173.437 157.258 173.437 157.258L175.964 155.651C175.964 155.651 176.438 156.219 175.916 156.569C175.292 156.989 172.505 159.348 171.416 159.811C169.99 160.417 166.295 163.305 166.295 163.305C166.295 163.305 163.532 158.99 163.275 158.648C163.796 158.315 165.637 157.099 165.637 157.099C166.512 155.427 166.504 153.874 167.557 151.455Z" fill="#D7A28E"/>
<path d="M171.566 154.786C171.601 154.846 172.004 154.675 172.466 154.404C172.928 154.134 173.274 153.866 173.239 153.806C173.204 153.746 172.801 153.917 172.339 154.188C171.877 154.458 171.531 154.726 171.566 154.786Z" fill="#C18C7C"/>
<path d="M172.241 156.227C172.278 156.285 172.651 156.11 173.073 155.837C173.495 155.563 173.806 155.294 173.768 155.236C173.73 155.178 173.358 155.353 172.936 155.626C172.514 155.9 172.203 156.169 172.241 156.227Z" fill="#C18C7C"/>
<path d="M172.758 157.626C172.794 157.685 173.113 157.557 173.47 157.34C173.828 157.122 174.088 156.898 174.052 156.839C174.016 156.78 173.697 156.908 173.34 157.125C172.983 157.342 172.722 157.566 172.758 157.626Z" fill="#C18C7C"/>
<path d="M172.498 157.068C172.453 157.128 172.602 157.293 172.697 157.515C172.799 157.737 172.813 157.947 172.879 157.963C172.947 157.987 173.062 157.718 172.927 157.414C172.79 157.111 172.53 157.014 172.498 157.068Z" fill="#C18C7C"/>
<path d="M172 155.757C171.955 155.817 172.104 155.982 172.199 156.204C172.301 156.426 172.315 156.637 172.381 156.652C172.449 156.676 172.564 156.407 172.428 156.103C172.292 155.8 172.031 155.703 172 155.757Z" fill="#C18C7C"/>
<path d="M171.374 154.392C171.329 154.451 171.478 154.617 171.573 154.839C171.675 155.06 171.689 155.271 171.756 155.287C171.823 155.311 171.938 155.041 171.803 154.738C171.666 154.435 171.406 154.338 171.374 154.392Z" fill="#C18C7C"/>
<path d="M128.473 287.156L130.368 296.515L134.411 297.385L134.917 286.131L128.473 287.156Z" fill="#D7A28E"/>
<path d="M129.244 292.599C128.538 292.076 128.658 300.439 129.244 300.662C129.83 300.885 144.77 301.275 146.151 300.661C147.532 300.047 147.616 297.266 145.314 296.795C143.013 296.323 138.186 295.483 136.722 293.645C136.722 293.645 135.708 291.192 135.333 290.962C134.958 290.732 134.831 292.599 134.831 292.599C134.831 292.599 130.939 293.854 129.244 292.599Z" fill="#FFC439"/>
<path d="M143.825 296.5C143.857 296.591 143.681 296.717 143.506 296.957C143.33 297.2 143.176 297.596 143.072 298.077C142.87 299.046 142.854 299.909 142.678 299.924C142.521 299.947 142.245 299.067 142.473 297.946C142.59 297.391 142.866 296.889 143.201 296.649C143.541 296.411 143.807 296.433 143.825 296.5Z" fill="#11405C"/>
<path d="M128.758 299.295C128.742 299.588 128.738 300.887 129.265 300.991C129.792 301.094 146.668 301.222 146.779 300.991C146.89 300.759 146.927 299.899 146.982 299.735C147.037 299.57 128.758 299.295 128.758 299.295Z" fill="#11405C"/>
<path d="M137.886 296.146C137.483 295.689 138.378 294.629 138.639 294.702C138.901 294.775 138.284 296.596 137.886 296.146Z" fill="#11405C"/>
<path d="M139.34 296.616C138.937 296.16 139.832 295.099 140.094 295.173C140.355 295.246 139.738 297.066 139.34 296.616Z" fill="#11405C"/>
<path d="M140.856 296.993C140.452 296.537 141.347 295.476 141.609 295.549C141.87 295.622 141.253 297.443 140.856 296.993Z" fill="#11405C"/>
<path d="M133.115 298.123C133.913 298.123 134.559 297.477 134.559 296.679C134.559 295.882 133.913 295.235 133.115 295.235C132.318 295.235 131.671 295.882 131.671 296.679C131.671 297.477 132.318 298.123 133.115 298.123Z" fill="#DBA12C"/>
<path d="M130.604 207.261C130.604 207.261 135.967 285.162 136.214 287.598C136.461 290.033 127.779 289.596 127.779 289.596L109.338 209.182L130.604 207.261Z" fill="#11405C"/>
<path d="M118.176 209.562L117.888 217.866L114.216 220.073L111.112 218.067L110.931 209.504L118.176 209.562Z" fill="#2F627C"/>
<path d="M109 209.668L108.487 216.95L106.193 218.67L104.412 216.72L104.654 209.182L109 209.668Z" fill="#2F627C"/>
<path d="M109.338 219.625L114.588 231.175L119.769 254.669L113.902 232.346L109.338 219.625Z" fill="#2F627C"/>
<path d="M98.6226 188.991C98.6226 191.529 99.4914 192.995 101.647 192.424C103.326 191.991 104.63 191.643 106.104 191.106C105.482 195.469 102.054 205.427 103.871 209.845C108.171 212.759 130.725 214.121 131.873 209.896C132.115 208.981 130.608 208.476 130.604 207.261C130.581 200.773 129.401 190.173 131.945 184.719L131.988 184.677C132.032 184.677 132.087 184.677 132.087 184.625C132.952 184.389 134.006 183.949 135.198 183.374C141.819 180.169 159.932 172.659 167.362 163.145C169.32 160.638 164.075 157.379 164.075 157.379C150.361 166.355 129.823 170.488 129.823 170.488C129.823 170.488 124.31 169.786 118.317 169.627C116.88 169.589 110.819 171.494 109.277 172.326C102.848 175.795 98.6226 185.349 98.6226 188.991Z" fill="#FFC439"/>
<path d="M106.104 191.106C106.104 191.106 107.715 186.519 107.325 186.519C106.934 186.519 99.4643 192.319 100.783 192.542C102.102 192.766 106.104 191.106 106.104 191.106Z" fill="#DBA12C"/>
<path d="M106.706 195.749C106.706 195.749 106.316 204.631 106.365 206.828C106.413 209.024 106.265 210.244 105.753 207.95C105.242 205.656 106.706 195.749 106.706 195.749Z" fill="#DBA12C"/>
<path d="M127.059 209.018C126.655 209.483 127.223 193.01 127.059 190.179C126.895 187.349 124.763 186.808 125.195 184.882C125.626 182.956 141.341 177.197 143.424 176.026C145.506 174.855 145.116 170.885 145.441 171.861C145.766 172.837 145.961 175.307 146.807 175.211C147.653 175.115 161.553 169.718 167.615 161.029C167.615 161.029 168.651 162.388 168.086 163.197C163.222 170.169 145.994 179.963 131.945 184.719C131.945 184.719 128.587 186.93 128.522 188.148C128.457 189.366 128.527 207.326 127.059 209.018Z" fill="#DBA12C"/>
<path d="M214.129 299.463L179.612 293.31L186.197 243.545L216.377 246.173L214.129 299.463Z" fill="#91C4F6"/>
<path d="M216.377 246.173L217.747 247.346L218.751 246.379L221.468 296.249L218.798 296.86L214.129 299.463L216.377 246.173Z" fill="#549BEC"/>
<path d="M193.923 251.417C193.923 252.138 193.506 252.722 192.991 252.722C192.476 252.722 192.059 252.138 192.059 251.417C192.059 250.697 192.476 250.112 192.991 250.112C193.506 250.112 193.923 250.696 193.923 251.417Z" fill="#549BEC"/>
<path d="M205.618 251.982C205.618 252.681 205.213 253.248 204.714 253.248C204.215 253.248 203.81 252.681 203.81 251.982C203.81 251.283 204.215 250.717 204.714 250.717C205.213 250.717 205.618 251.283 205.618 251.982Z" fill="#549BEC"/>
<path d="M192.475 251.385C192.129 253.419 191.783 255.453 191.437 257.487C191.139 259.235 190.754 260.998 190.69 262.774C190.575 265.968 192.123 268.664 195.078 269.972C196.577 270.636 198.235 270.871 199.865 270.853C201.086 270.839 202.523 270.733 203.297 269.649C204.174 268.419 203.299 267.183 202.435 266.232C201.425 265.118 199.058 264.189 199.149 262.465C199.212 261.285 200.128 260.396 200.885 259.59C201.507 258.927 202.097 258.238 202.639 257.507C203.614 256.191 205.188 254.208 204.993 252.461C204.943 252.01 204.229 252.005 204.28 252.461C204.445 253.944 203.05 255.721 202.219 256.879C201.345 258.096 200.223 259.086 199.326 260.275C198.652 261.17 198.184 262.345 198.581 263.459C198.978 264.574 200.112 265.129 200.974 265.83C201.58 266.323 202.166 266.907 202.59 267.566C203.299 268.667 202.722 269.624 201.554 269.97C200.093 270.402 198.177 270.166 196.733 269.792C193.435 268.938 191.322 266.384 191.398 262.941C191.438 261.112 191.85 259.29 192.156 257.492C192.492 255.52 192.827 253.547 193.163 251.575C193.239 251.126 192.552 250.933 192.475 251.385Z" fill="#CDEEFF"/>
<path d="M228.087 300.777L254.739 296.026L249.655 257.6L226.352 259.629L228.087 300.777Z" fill="#009444"/>
<path d="M226.352 259.629L225.294 260.535L224.518 259.789L222.42 298.295L224.482 298.767L228.087 300.777L226.352 259.629Z" fill="#097C3A"/>
<path d="M243.689 263.679C243.689 264.235 244.011 264.686 244.409 264.686C244.806 264.686 245.129 264.235 245.129 263.679C245.129 263.122 244.806 262.671 244.409 262.671C244.011 262.671 243.689 263.122 243.689 263.679Z" fill="#097C3A"/>
<path d="M234.659 264.115C234.659 264.655 234.972 265.092 235.357 265.092C235.743 265.092 236.055 264.655 236.055 264.115C236.055 263.575 235.743 263.138 235.357 263.138C234.972 263.138 234.659 263.575 234.659 264.115Z" fill="#097C3A"/>
<path d="M244.807 263.654C245.074 265.225 245.342 266.795 245.609 268.366C245.839 269.715 246.136 271.077 246.185 272.448C246.274 274.914 245.079 276.996 242.797 278.006C241.64 278.518 240.359 278.7 239.101 278.686C238.158 278.675 237.049 278.593 236.451 277.756C235.774 276.807 236.45 275.852 237.117 275.117C237.897 274.258 239.725 273.54 239.654 272.209C239.605 271.298 238.898 270.611 238.314 269.989C237.833 269.477 237.377 268.946 236.959 268.381C236.206 267.364 234.991 265.833 235.141 264.485C235.18 264.136 235.731 264.132 235.692 264.485C235.565 265.629 236.642 267.002 237.284 267.896C237.959 268.835 238.825 269.6 239.517 270.518C240.038 271.209 240.4 272.116 240.093 272.977C239.786 273.837 238.91 274.266 238.245 274.807C237.777 275.188 237.324 275.639 236.997 276.148C236.449 276.998 236.895 277.737 237.797 278.004C238.925 278.337 240.405 278.155 241.519 277.867C244.066 277.207 245.698 275.235 245.639 272.576C245.608 271.164 245.29 269.758 245.054 268.369C244.794 266.847 244.535 265.324 244.276 263.801C244.217 263.454 244.748 263.305 244.807 263.654Z" fill="#CDEEFF"/>
<path d="M157.227 275.442L181.889 270.202L206.552 273.821L182.324 282.176L157.227 275.442Z" fill="#FFC439"/>
<path d="M182.994 307.288L206.997 301.427L206.552 273.821L182.239 278.994L182.994 307.288Z" fill="#DBA12C"/>
<path opacity="0.5" d="M168.262 273.098L175.979 271.504L197.835 275.533L198.101 281.079L195.063 282.018L194.5 281.114L194.205 282.396L191.886 283.198L191.809 277.257L168.262 273.098Z" fill="#CDEEFF"/>
<path opacity="0.5" d="M194.522 304.483L194.508 300.176L195.997 299.887L196.325 300.413L196.496 299.677L200.391 298.572L200.848 302.934L194.522 304.483Z" fill="#CDEEFF"/>
<path d="M157.227 275.442L158.02 303.799L182.994 307.288L182.239 278.994L157.227 275.442Z" fill="#FFC439"/>
<path d="M157.227 275.442L182.239 278.994C182.239 278.994 174.435 279.912 169.253 278.994C164.071 278.076 157.227 275.442 157.227 275.442Z" fill="#DBA12C"/>
<path d="M191.809 282.09L211.322 277.945L230.836 280.808L211.666 287.418L191.809 282.09Z" fill="#FFC439"/>
<path d="M212.196 307.288L231.188 302.65L230.836 280.808L211.599 284.901L212.196 307.288Z" fill="#DBA12C"/>
<path opacity="0.5" d="M200.54 280.235L206.646 278.974L223.939 282.162L224.149 286.551L221.746 287.294L221.3 286.578L221.067 287.592L219.232 288.227L219.171 283.527L200.54 280.235Z" fill="#CDEEFF"/>
<path opacity="0.5" d="M221.317 305.068L221.306 301.661L222.485 301.432L222.744 301.848L222.88 301.266L225.961 300.391L226.323 303.843L221.317 305.068Z" fill="#CDEEFF"/>
<path d="M191.809 282.091L192.436 304.527L212.196 307.288L211.599 284.901L191.809 282.091Z" fill="#FFC439"/>
<path d="M191.809 282.091L211.599 284.901C211.599 284.901 205.424 285.628 201.324 284.901C197.224 284.175 191.809 282.091 191.809 282.091Z" fill="#DBA12C"/>
<path d="M251.711 152.735L241.807 155.566L241.667 160.142L247.065 179.043L248.407 178.665L258.308 175.834L259.647 175.45L254.244 156.552L251.711 152.735ZM247.653 157.293C247.072 157.459 246.468 157.118 246.3 156.54C246.135 155.955 246.468 155.345 247.055 155.177C247.633 155.013 248.247 155.348 248.416 155.933C248.577 156.517 248.24 157.125 247.653 157.293Z" fill="#FFC439"/>
<path d="M248.467 162.671L248.244 161.895L249.588 161.513L249.816 162.286C251.052 162.197 251.908 162.922 252.31 164.344L252.406 164.67L250.846 165.118L250.719 164.685C250.508 163.934 250.126 163.734 249.605 163.886C249.081 164.034 248.864 164.404 249.074 165.154C249.691 167.306 252.944 166.491 253.797 169.493C254.199 170.91 253.846 172.002 252.748 172.573L252.968 173.338L251.62 173.725L251.399 172.958C250.147 173.056 249.292 172.314 248.886 170.892L248.686 170.172L250.236 169.732L250.47 170.552C250.687 171.3 251.093 171.48 251.614 171.327C252.14 171.178 252.394 170.815 252.18 170.065C251.564 167.907 248.312 168.724 247.461 165.731C247.056 164.322 247.385 163.256 248.467 162.671Z" fill="#DBA12C"/>
<path d="M74.3742 128.348L70.4651 148.476C70.4651 148.476 83.1266 154.882 83.588 154.418C84.0493 153.955 92.0419 134.921 92.0419 134.921L74.3742 128.348Z" fill="#F2CD33"/>
<path d="M80.8548 137.229C81.735 137.611 82.0761 138.398 81.4477 139.337C80.8287 140.28 79.8445 140.491 78.9641 140.109C78.0745 139.722 77.7336 138.935 78.3526 137.992C78.981 137.053 79.9744 136.846 80.8548 137.229ZM83.7705 138.606L85.2996 139.27L77.7385 143.74L76.2096 143.076L83.7705 138.606ZM79.4555 138.471C79.196 138.865 79.2413 139.116 79.5193 139.237C79.7973 139.358 80.0951 139.256 80.3544 138.862C80.6138 138.468 80.5593 138.213 80.2814 138.092C80.0032 137.971 79.7148 138.077 79.4555 138.471ZM82.5635 142.246C83.4439 142.628 83.7755 143.411 83.1472 144.35C82.5281 145.293 81.5439 145.504 80.6636 145.122C79.7833 144.739 79.4423 143.952 80.0706 143.013C80.6897 142.07 81.6831 141.863 82.5635 142.246ZM81.1549 143.484C80.8954 143.879 80.9407 144.129 81.2279 144.254C81.4967 144.371 81.7944 144.269 82.0538 143.875C82.3131 143.481 82.2586 143.226 81.99 143.109C81.7119 142.988 81.4142 143.09 81.1549 143.484Z" fill="#DBA12C"/>
<path d="M222.126 67.9423L231.023 89.4782C231.023 89.4782 247.042 87.6239 247.189 86.8954C247.336 86.1668 242.997 63.1118 242.997 63.1118L222.126 67.9423Z" fill="#F2CD33"/>
<path d="M233.833 72.3059C234.907 72.1174 235.723 72.6503 235.715 73.9341C235.719 75.2158 234.918 76.0325 233.843 76.2211C232.758 76.4115 231.941 75.8785 231.938 74.5968C231.946 73.313 232.758 72.4944 233.833 72.3059ZM237.46 71.7861L239.326 71.4586L234.955 80.4325L233.089 80.7599L237.46 71.7861ZM233.284 74.3606C233.285 74.8968 233.485 75.1064 233.824 75.0469C234.163 74.9874 234.382 74.7043 234.381 74.1682C234.38 73.6321 234.169 73.4245 233.83 73.484C233.49 73.5435 233.283 73.8245 233.284 74.3606ZM238.595 75.9936C239.669 75.8052 240.474 76.34 240.466 77.6238C240.47 78.9055 239.669 79.7222 238.594 79.9107C237.52 80.0992 236.703 79.5663 236.711 78.2826C236.708 77.0006 237.52 76.1821 238.595 75.9936ZM238.035 78.0503C238.035 78.5865 238.235 78.7961 238.586 78.7347C238.914 78.6771 239.132 78.394 239.132 77.8579C239.131 77.3218 238.92 77.1142 238.592 77.1717C238.252 77.2312 238.034 77.5142 238.035 78.0503Z" fill="#DBA12C"/>
<defs>
<linearGradient id="paint0_linear_26_536" x1="98.7999" y1="91.7592" x2="98.7999" y2="76.8223" gradientUnits="userSpaceOnUse">
<stop offset="0.0372" stop-color="#D4C95E"/>
<stop offset="1" stop-color="#FF9444"/>
</linearGradient>
</defs>
</svg>
