<svg width="79" height="79" viewBox="0 0 79 79" fill="none" xmlns="http://www.w3.org/2000/svg">
<g clip-path="url(#clip0_27_35)">
<path fill-rule="evenodd" clip-rule="evenodd" d="M6.90401 53.433H71.543V55.596H6.90401V53.433Z" fill="#1A6D31"/>
<path fill-rule="evenodd" clip-rule="evenodd" d="M58.388 53.433H71.544V55.596H59.637L58.388 53.433Z" fill="#1A6D31"/>
<path fill-rule="evenodd" clip-rule="evenodd" d="M58.388 53.433H71.544V55.596H59.637L58.388 53.433Z" fill="#2CAD29"/>
<path fill-rule="evenodd" clip-rule="evenodd" d="M8.04001 56.67H70.408C70.709 56.6689 70.9973 56.5489 71.2101 56.3361C71.4229 56.1233 71.543 55.835 71.544 55.534H6.90401C6.90532 55.8348 7.02546 56.1229 7.23825 56.3355C7.45103 56.5481 7.73922 56.6689 8.04001 56.67Z" fill="#064D07"/>
<path fill-rule="evenodd" clip-rule="evenodd" d="M60.256 56.67H70.408C71.033 56.67 71.544 56.158 71.544 55.534H59.6L60.255 56.669L60.256 56.67Z" fill="#027D0F"/>
<path fill-rule="evenodd" clip-rule="evenodd" d="M36.299 54.305H42.15V54.64H36.299V54.305Z" fill="#121212"/>
<path fill-rule="evenodd" clip-rule="evenodd" d="M36.299 54.347H42.15V54.682H36.299V54.347Z" fill="#064D07"/>
<path fill-rule="evenodd" clip-rule="evenodd" d="M66.892 54.304H67.312V54.724H66.892V54.304Z" fill="#E53935"/>
<path fill-rule="evenodd" clip-rule="evenodd" d="M68.011 54.304H68.431V54.724H68.011V54.304Z" fill="#43A047"/>
<path fill-rule="evenodd" clip-rule="evenodd" d="M69.13 54.304H69.55V54.724H69.13V54.304Z" fill="#1E88E5"/>
<path fill-rule="evenodd" clip-rule="evenodd" d="M8.89799 56.67H9.89299C9.89299 56.84 9.753 56.981 9.581 56.981H9.21C9.12733 56.9807 9.04812 56.9478 8.98967 56.8893C8.93121 56.8309 8.89826 56.7527 8.89799 56.67ZM68.555 56.67H69.55C69.55 56.84 69.41 56.981 69.238 56.981H68.867C68.7843 56.9807 68.7051 56.9478 68.6467 56.8893C68.5882 56.8309 68.5553 56.7527 68.555 56.67Z" fill="#1A6D31"/>
<path fill-rule="evenodd" clip-rule="evenodd" d="M16.477 52.768H61.97C62.701 52.768 63.3 52.17 63.3 51.439V22.796C63.3 22.066 62.701 21.467 61.97 21.467H16.477C15.747 21.467 15.147 22.066 15.147 22.797V51.439C15.147 52.169 15.746 52.768 16.477 52.768Z" fill="#121212"/>
<path fill-rule="evenodd" clip-rule="evenodd" d="M17.276 23.637H61.171V50.618H17.276V23.637Z" fill="#064D07"/>
<path fill-rule="evenodd" clip-rule="evenodd" d="M40.575 23.637L56.153 50.618H61.172V23.638L40.575 23.637Z" fill="#027D0F"/>
<path d="M39.0167 22.7698C39.1292 22.8843 39.3133 22.886 39.4278 22.7734C39.5423 22.6609 39.5439 22.4769 39.4314 22.3624C39.3189 22.2479 39.1348 22.2462 39.0203 22.3588C38.9058 22.4713 38.9042 22.6553 39.0167 22.7698Z" fill="#064D07"/>
<path d="M39.064 22.7248C39.1511 22.8134 39.2935 22.8146 39.3822 22.7276C39.4708 22.6405 39.472 22.498 39.385 22.4094C39.2979 22.3208 39.1554 22.3195 39.0668 22.4066C38.9781 22.4937 38.9769 22.6361 39.064 22.7248Z" fill="#027D0F"/>
<path fill-rule="evenodd" clip-rule="evenodd" d="M39.385 22.409C39.4098 22.4341 39.4283 22.4647 39.4391 22.4983C39.4499 22.5319 39.4526 22.5676 39.4471 22.6024C39.4415 22.6373 39.4278 22.6703 39.4072 22.6989C39.3865 22.7275 39.3594 22.7508 39.328 22.767C39.26 22.7287 39.2079 22.6673 39.181 22.594C39.1648 22.5545 39.1566 22.5121 39.157 22.4693C39.1573 22.4266 39.1662 22.3843 39.183 22.345C39.2193 22.3383 39.2568 22.3406 39.292 22.3518C39.3272 22.3629 39.3592 22.3826 39.385 22.409Z" fill="#636363"/>
</g>
<defs>
<clipPath id="clip0_27_35">
<rect width="78.448" height="78.448" fill="white"/>
</clipPath>
</defs>
</svg>
