<svg width="84" height="84" viewBox="0 0 84 84" fill="none" xmlns="http://www.w3.org/2000/svg">
<path d="M75.6769 75.0116H7.90265V75.9698H75.6769V75.0116Z" fill="#E3EDF5"/>
<path d="M33.3583 14.9238L33.1001 14.74L33.753 13.8229L34.7133 14.47L34.5361 14.7327L33.832 14.2583L33.3583 14.9238Z" fill="#DCF5F9"/>
<path d="M25.3783 75.024H52.1978C53.8846 75.024 55.252 73.6566 55.252 71.9698V28.8653C55.252 27.1785 53.8846 25.8111 52.1978 25.8111H25.3783C23.6915 25.8111 22.324 27.1785 22.324 28.8653V71.9698C22.324 73.6566 23.6915 75.024 25.3783 75.024Z" fill="#015318"/>
<path d="M27.179 75.024H53.9985C55.6852 75.024 57.0528 73.6566 57.0528 71.9698V28.8653C57.0528 27.1785 55.6852 25.8111 53.9985 25.8111H27.179C25.4922 25.8111 24.1248 27.1785 24.1248 28.8653V71.9698C24.1248 73.6566 25.4922 75.024 27.179 75.024Z" fill="#1A6D31"/>
<path d="M39.4493 72.4226C39.4493 73.0519 39.9595 73.562 40.5888 73.562C41.218 73.562 41.7281 73.0519 41.7281 72.4226C41.7281 71.7934 41.218 71.2831 40.5888 71.2831C39.9595 71.2831 39.4493 71.7934 39.4493 72.4226Z" fill="#92FFDD"/>
<path d="M63.6158 69.6478H57.0528V28.8653C57.0528 27.1785 55.6853 25.8111 53.9985 25.8111H26.738V21.7452H63.6158V69.6478Z" fill="#EAF9FC"/>
<path d="M26.738 25.8427V25.8111H52.1977H27.179C27.0293 25.8111 26.882 25.8219 26.738 25.8427Z" fill="black"/>
<path d="M57.0528 69.6478H26.738V25.8427C26.882 25.8219 27.0293 25.8111 27.179 25.8111H53.9985C55.6853 25.8111 57.0528 27.1785 57.0528 28.8654V69.6478Z" fill="#EAFCEB"/>
<path d="M49.9162 21.6913C49.9782 20.5626 49.351 19.6103 48.5153 19.5644C47.6796 19.5185 46.9519 20.3962 46.8899 21.5249C46.8277 22.6536 47.455 23.6058 48.2906 23.6518C49.1264 23.6977 49.8542 22.8199 49.9162 21.6913Z" fill="black"/>
<path d="M49.4981 21.6662C49.5602 20.5375 49.0267 19.5904 48.3064 19.5508C47.5862 19.5113 46.952 20.3941 46.89 21.5229C46.8278 22.6515 47.3615 23.5986 48.0817 23.6382C48.8019 23.6778 49.4361 22.7949 49.4981 21.6662Z" fill="#004381"/>
<path d="M49.4432 18.8153C49.4037 19.7015 49.1149 20.4541 48.7906 20.4391C48.4431 20.4232 47.9674 19.6353 48.0068 18.7491C48.0462 17.8628 48.267 17.5504 48.7788 17.5739C49.2906 17.5975 49.4826 17.929 49.4432 18.8153Z" fill="#2E1709"/>
<path d="M39.9084 31.5939C39.9084 30.4492 42.5382 28.6977 44.1766 28.6977C46.4743 28.6977 48.6915 30.0617 48.6915 31.6613C48.6915 33.2609 46.4743 34.4902 44.1766 34.4902C41.8788 34.4902 39.9084 33.1935 39.9084 31.5939Z" fill="#074A16"/>
<path d="M55.4277 61.6006C55.2196 59.7404 53.4616 54.376 53.4616 54.376H40.4856L37.6251 57.3196L36.9486 69.6048L55.6195 69.6097C55.6942 66.5751 55.6627 63.7008 55.4277 61.6006Z" fill="#1E2B4C"/>
<path d="M47.819 33.0862L41.5722 33.097L41.9826 27.9002L42.2557 22.0304L47.2115 27.2154L47.819 33.0862ZM49.139 21.5771C49.1481 22.1055 48.7816 22.5404 48.3202 22.5484C47.8589 22.5565 47.4774 22.1347 47.4682 21.6062C47.4589 21.0779 47.8255 20.643 48.2868 20.635C48.7483 20.6269 49.1298 21.0487 49.139 21.5771Z" fill="#B97860"/>
<path d="M46.7874 27.7379C46.4449 27.744 45.8738 27.7544 45.4169 27.7625C44.318 27.7819 43.0965 26.8183 42.8523 25.2711C42.7297 24.495 42.5176 22.8162 42.5176 22.8162L42.0094 16.8069L49.0105 16.6848L48.7986 25.8424C48.7746 26.8817 47.8864 27.7185 46.7874 27.7379Z" fill="#C2866E"/>
<path d="M47.4209 18.7837C45.7867 18.9809 44.7935 18.2066 43.0797 18.2753C41.957 18.3202 41.3156 17.3064 41.4775 16.5184C41.8332 14.7863 44.6334 15.1033 45.6977 15.1647C48.2664 15.3128 49.2524 14.8987 49.8385 14.6536C50.1231 14.5347 50.4361 14.7393 50.4288 15.0433C50.3669 17.6211 49.0966 18.5814 47.4209 18.7837Z" fill="#2E1709"/>
<path d="M42.7652 19.2651C42.5855 19.7998 42.662 21.3385 42.1585 21.4383C41.656 21.5379 40.4816 21.0631 40.4818 18.3922C40.4819 17.4146 41.1418 15.7804 42.3148 16.2277C44.3747 17.0132 43.205 17.9559 42.7652 19.2651Z" fill="#2E1709"/>
<path d="M48.069 31.594C48.069 31.594 45.9962 33.2031 42.2898 32.3072L44.2244 45.0704L43.806 55.6403L43.9367 56.3203L53.9575 55.6306L50.0569 40.523L48.069 31.594Z" fill="#DCF5F9"/>
<path d="M36.0895 32.5483L39.7975 30.5458L41.6852 31.2312L47.819 46.3646V64.9536C47.819 64.9536 45.1058 65.5434 44.9289 65.5434C44.7519 65.5434 36.0895 65.0213 36.0895 65.0213L37.4971 51.1582L36.7304 39.6882L36.0895 32.5483ZM47.6912 29.9191L50.3552 42.8535L52.6071 50.4002L53.0122 41.7825L53.5696 33.495L47.6912 29.9191Z" fill="#FFBC59"/>
<path d="M53.5696 33.495C54.5184 33.7822 54.8829 35.8433 55.1648 37.8283C55.5204 40.3318 56.0512 63.3489 56.0512 63.3489C56.0512 63.3489 54.0051 59.7474 53.4766 58.9427C53.1232 58.4047 52.7537 57.0009 52.666 56.3202C51.9363 50.6563 51.72 32.9352 53.5696 33.495Z" fill="#FFBC59"/>
<path d="M42.5758 21.0234C42.4547 20.9949 42.326 20.9852 42.1934 20.9999C41.6192 21.0631 41.2007 21.5401 41.2589 22.0654C41.3172 22.5906 41.83 22.9652 42.4043 22.9019C42.534 22.8876 42.6552 22.8513 42.7652 22.7991L42.5758 21.0234Z" fill="#B97860"/>
<path d="M39.4833 31.1284C39.2208 31.9994 38.1277 35.8172 38.1277 35.8172L39.9766 36.2191L38.4493 37.5857L47.819 46.3646C47.819 46.3646 41.5434 30.2502 41.4193 29.7263C41.4193 29.7263 40.0533 30.2771 39.7207 30.5493C39.6374 30.6175 39.5508 30.9043 39.4833 31.1284ZM51.2952 32.8788L50.1901 33.773L51.7164 34.1764L51.1605 45.5525C51.1605 45.5525 49.8259 41.2545 48.8692 37.019C48.1597 33.8773 47.7304 30.4166 47.4681 29.6963C47.4681 29.6963 48.2828 30.0465 48.5647 30.2207C48.7448 30.3319 51.2952 32.8788 51.2952 32.8788Z" fill="#1E2B4C"/>
<path d="M47.6209 15.1654C46.9908 14.6911 45.9931 14.2412 44.5059 14.5494C41.7867 15.1133 41.4718 19.6843 41.4617 19.8793L42.0197 19.9061C42.0219 19.8625 42.3219 15.5527 44.6234 15.0755C45.4916 14.8949 46.0812 14.9798 46.5937 15.1953C46.611 15.2026 47.6478 15.1857 47.6209 15.1654Z" fill="#1E2B4C"/>
<path d="M46.5386 25.4752H45.7449C45.5846 25.4752 45.4489 25.5805 45.3999 25.7247C44.4771 25.6513 43.6289 25.1327 43.1487 24.3328L42.5263 23.2963L42.2603 23.456L42.8827 24.4925C43.4177 25.3835 44.3649 25.9599 45.3939 26.0357C45.437 26.1899 45.5776 26.3044 45.7449 26.3044H46.5386C46.7398 26.3044 46.9044 26.1398 46.9044 25.9385V25.8412C46.9044 25.6399 46.7398 25.4752 46.5386 25.4752Z" fill="#0E5C25"/>
<path d="M43.1929 21.6311C43.3142 22.755 42.738 23.7388 41.9058 23.8286C41.0736 23.9184 40.3008 23.0802 40.1795 21.9563C40.0582 20.8324 40.6344 19.8485 41.4665 19.7587C42.2987 19.669 43.0716 20.5072 43.1929 21.6311Z" fill="#004381"/>
<path d="M42.7767 21.678C42.898 22.8019 42.415 23.7757 41.6978 23.8532C40.9807 23.9306 40.3009 23.0823 40.1797 21.9584C40.0583 20.8345 40.5413 19.8606 41.2586 19.7832C41.9757 19.7059 42.6554 20.5542 42.7767 21.678Z" fill="black"/>
<path d="M42.5 21.707C42.5957 22.5936 42.1408 23.3698 41.484 23.4407C40.8272 23.5116 40.2171 22.8504 40.1214 21.9637C40.0258 21.0771 40.4806 20.3009 41.1375 20.23C41.7943 20.1591 42.4043 20.8204 42.5 21.707Z" fill="#1E2B4C"/>
<path d="M42.0589 21.7532C42.1523 22.6192 41.782 23.3693 41.2317 23.4287C40.6815 23.4881 40.1597 22.8342 40.0662 21.9683C39.9728 21.1023 40.343 20.3521 40.8933 20.2927C41.4436 20.2333 41.9654 20.8872 42.0589 21.7532Z" fill="black"/>
<path d="M53.2839 41.805C53.2839 41.805 53.1637 33.8011 53.373 33.5964C53.7009 33.2757 54.5588 33.9677 54.9536 34.4143C56.0381 35.6419 61.2237 46.8641 60.0787 51.1278C59.9038 51.779 57.9913 52.4954 57.9913 52.4954C57.9913 52.4954 55.1982 49.7196 55.0921 49.4745C54.3808 47.8315 53.4979 42.5115 53.4979 42.5115C53.3571 42.3013 53.2828 42.0564 53.2839 41.805ZM37.9788 41.8545C37.9788 41.8545 36.8905 32.6038 36.6207 32.4219C36.1982 32.1369 34.2954 33.9906 33.8461 34.7344C32.6084 36.7837 31.6704 41.6031 31.3038 43.7076C30.8625 46.2412 30.5167 50.6263 30.9161 52.9568C31.0391 53.6749 31.7757 55.8847 31.7757 55.8847L36.7763 48.3548L37.9788 41.8545Z" fill="#FFBC59"/>
<path d="M41.5146 54.9554H52.9746L55.5502 38.7153H44.0902L41.5146 54.9554Z" fill="white"/>
<path d="M55.4499 49.6841L53.3268 48.4728C53.3268 48.4728 51.8965 47.841 51.5903 47.612C51.3569 47.4376 49.5436 46.2031 49.4842 45.5498C49.4768 45.4686 49.5953 45.1437 49.5953 45.1437C49.5953 45.1437 49.4571 44.7701 49.3799 44.6694C49.3014 44.5668 49.6506 44.3286 50.0652 44.37C50.0897 44.3724 50.4133 44.4361 50.7926 44.5119C51.362 44.6255 52.3468 44.5277 52.3468 44.5277C52.3468 44.5277 51.7027 44.1529 51.1423 44.0545C50.8463 44.0024 50.1644 43.9871 49.9654 43.7178C49.9106 43.6436 49.9643 43.2834 50.4534 43.1884C50.8822 43.105 53.1636 43.407 54.5742 43.7207C54.7487 43.7595 54.9091 42.728 54.9091 42.728C55.343 42.728 56.0234 43.442 56.2321 43.7459C56.6985 44.4253 57.1991 47.2403 57.1991 47.2403L55.4499 49.6841Z" fill="#C2866E"/>
<path d="M53.6212 49.0347L57.3005 46.4965C57.3005 46.4965 60.3595 49.1213 60.3673 50.3529C60.3707 50.8943 59.584 52.0035 59.0422 52.3492C58.6799 52.5803 57.7325 52.7665 57.3402 52.6651C55.9551 52.3071 53.6212 49.0347 53.6212 49.0347Z" fill="#FFBC59"/>
<path d="M41.1736 51.0178L44.6647 49.978C44.6647 49.978 45.8441 49.8002 46.1503 49.5712C46.3836 49.3968 48.197 48.1623 48.2564 47.509C48.2638 47.4278 48.1453 47.103 48.1453 47.103C48.1453 47.103 48.2835 46.7292 48.3605 46.6287C48.4393 46.5259 48.0901 46.2878 47.6754 46.3291C47.6508 46.3316 47.3274 46.3954 46.9479 46.4711C46.3786 46.5847 45.3937 46.4869 45.3937 46.4869C45.3937 46.4869 46.0532 46.2021 46.6136 46.1037C46.9096 46.0517 47.5915 46.0363 47.7905 45.767C47.8453 45.6929 47.7915 45.3327 47.3026 45.2376C46.8737 45.1543 44.5449 45.2463 43.1664 45.6799C43.0646 45.7119 42.9677 45.621 42.9914 45.5169L43.1213 44.9463C42.329 44.9901 42.1568 45.4922 41.9303 45.7757C41.4162 46.4196 39.4284 48.5164 39.4284 48.5164L41.1736 51.0178Z" fill="#C2866E"/>
<path d="M42.3564 51.5876L39.8356 47.1397L36.6944 48.4761L32.9028 52.4349C32.9028 52.4349 31.4999 55.6321 31.7757 55.8847C32.0968 56.1787 34.9506 55.4604 35.5934 55.2561C37.5536 54.633 42.3564 51.5876 42.3564 51.5876Z" fill="#FFBC59"/>
<path d="M69.0529 55.169C68.4164 54.9817 67.7462 55.3473 67.559 55.9838C67.3717 56.6203 67.7373 57.2905 68.3738 57.4777C69.0103 57.665 69.6806 57.2994 69.8678 56.6629C70.055 56.0263 69.6895 55.3561 69.0529 55.169ZM68.2888 57.7666C67.4931 57.5325 67.0361 56.6946 67.2701 55.8988C67.5043 55.103 68.3421 54.646 69.1379 54.8801C69.9336 55.1142 70.3908 55.952 70.1567 56.7478C69.9226 57.5436 69.0847 58.0006 68.2888 57.7666Z" fill="#DCF5F9"/>
<path d="M68.9224 55.6126C68.5305 55.4972 68.1179 55.7224 68.0025 56.1143C67.8873 56.5062 68.1124 56.9188 68.5043 57.0342C68.8963 57.1494 69.3089 56.9244 69.4242 56.5324C69.5394 56.1405 69.3143 55.7278 68.9224 55.6126ZM68.4193 57.323C67.8681 57.1609 67.5515 56.5806 67.7137 56.0294C67.8758 55.4781 68.4562 55.1616 69.0074 55.3237C69.5587 55.4858 69.8752 56.0662 69.7131 56.6174C69.5509 57.1686 68.9706 57.4851 68.4193 57.323ZM69.4119 55.2746C69.3321 55.251 69.2864 55.1674 69.31 55.0876L69.4881 54.4819C69.5116 54.4021 69.5952 54.3565 69.6749 54.3799C69.7548 54.4033 69.8004 54.4871 69.7769 54.5668L69.5987 55.1726C69.5753 55.2524 69.4917 55.298 69.4119 55.2746ZM68.694 55.0634C68.6142 55.0399 68.5686 54.9562 68.592 54.8765L68.7702 54.2707C68.7936 54.1909 68.8774 54.1453 68.9571 54.1687C69.0369 54.1923 69.0826 54.2759 69.0591 54.3556L68.8809 54.9614C68.8575 55.0412 68.7738 55.0868 68.694 55.0634Z" fill="#DCF5F9"/>
<path d="M69.9126 54.7636L68.5497 54.3628C68.4699 54.3393 68.4243 54.2556 68.4477 54.1759C68.4712 54.0961 68.5548 54.0505 68.6346 54.0739L69.9975 54.4748C70.0772 54.4983 70.1229 54.5819 70.0995 54.6616C70.076 54.7414 69.9924 54.7871 69.9126 54.7636ZM70.2984 55.904C70.2784 55.8981 70.2598 55.8882 70.2439 55.8748C70.2279 55.8613 70.215 55.8447 70.2058 55.826L70.0675 55.5447C70.0308 55.47 70.0616 55.3798 70.1362 55.3431C70.2108 55.3065 70.3011 55.3372 70.3377 55.4118L70.476 55.6931C70.5127 55.7677 70.4819 55.858 70.4073 55.8947C70.372 55.912 70.3333 55.9143 70.2984 55.904ZM68.6709 56.4678C68.6501 56.4617 68.6309 56.4512 68.6145 56.4369C68.5982 56.4227 68.5851 56.4051 68.5762 56.3854C68.542 56.3096 68.5756 56.2204 68.6514 56.1861L69.1012 55.9828C69.1769 55.9486 69.2661 55.9823 69.3003 56.0579C69.3347 56.1338 69.301 56.2229 69.2252 56.2573L68.7753 56.4605C68.7425 56.4754 68.7055 56.478 68.6709 56.4678ZM70.4702 20.0781H70.7242C70.7432 19.9506 70.7932 19.7701 70.9234 19.6333L70.9292 19.6273C70.9767 19.5797 71.13 19.4071 71.104 19.1861C71.0702 18.8977 70.8577 18.7039 70.5754 18.7039C70.2916 18.7039 70.0607 18.9304 70.0607 19.2088C70.0607 19.3567 70.1209 19.5022 70.2177 19.5886C70.3769 19.7304 70.443 19.9388 70.4702 20.0781ZM70.8634 20.3792H70.3387C70.2585 20.3792 70.1924 20.3163 70.1883 20.2362C70.1839 20.1573 70.1444 19.9265 70.0175 19.8134C69.856 19.6695 69.7596 19.4435 69.7596 19.2088C69.7596 18.7645 70.1256 18.4029 70.5754 18.4029C71.0111 18.4029 71.3514 18.7105 71.4031 19.1511C71.4446 19.5056 71.2149 19.7672 71.1427 19.8396C71.0343 19.9535 71.013 20.1573 71.0139 20.2263C71.0141 20.2462 71.0104 20.2661 71.0029 20.2846C70.9955 20.3031 70.9844 20.3199 70.9704 20.3341C70.9421 20.3628 70.9035 20.3792 70.8634 20.3792ZM70.7006 20.7677H70.5013C70.4182 20.7677 70.3507 20.7003 70.3507 20.6171C70.3507 20.534 70.4182 20.4666 70.5013 20.4666H70.7006C70.7839 20.4666 70.8512 20.534 70.8512 20.6171C70.8512 20.7003 70.7839 20.7677 70.7006 20.7677Z" fill="#DCF5F9"/>
<path d="M70.6054 19.9146C70.5222 19.9146 70.4548 19.8472 70.4548 19.764V19.4755C70.4548 19.3923 70.5222 19.3249 70.6054 19.3249C70.6885 19.3249 70.756 19.3923 70.756 19.4755V19.764C70.756 19.8472 70.6885 19.9146 70.6054 19.9146ZM70.5971 18.9797C70.5607 18.9797 70.5312 19.0097 70.5312 19.0469C70.5312 19.084 70.5607 19.1141 70.5971 19.1141C70.6335 19.1141 70.6631 19.084 70.6631 19.0469C70.6631 19.0097 70.6335 18.9797 70.5971 18.9797ZM70.5971 19.2807C70.4674 19.2807 70.362 19.1758 70.362 19.0469C70.362 18.9179 70.4674 18.813 70.5971 18.813C70.7267 18.813 70.8322 18.9179 70.8322 19.0469C70.8322 19.1758 70.7267 19.2807 70.5971 19.2807ZM69.8842 18.5296C69.846 18.5296 69.8078 18.5151 69.7786 18.4862L69.5704 18.2811C69.5112 18.2227 69.5105 18.1274 69.5689 18.0682C69.6273 18.0091 69.7226 18.0083 69.7819 18.0667L69.9899 18.2718C70.0491 18.3302 70.0498 18.4254 69.9914 18.4847C69.9774 18.4989 69.9608 18.5102 69.9424 18.5179C69.924 18.5256 69.9042 18.5296 69.8842 18.5296ZM71.3196 18.5918C71.2808 18.5918 71.2419 18.5769 71.2124 18.547C71.154 18.4878 71.1547 18.3924 71.2139 18.334L71.422 18.129C71.4812 18.0705 71.5765 18.0713 71.6349 18.1305C71.6933 18.1897 71.6926 18.285 71.6334 18.3434L71.4253 18.5485C71.3971 18.5763 71.3592 18.5919 71.3196 18.5918ZM71.6633 19.0809C71.587 19.0809 71.5217 19.0232 71.5137 18.9456C71.5052 18.8629 71.5655 18.789 71.6483 18.7806L71.9389 18.7509C72.0215 18.7428 72.0955 18.8027 72.1039 18.8854C72.1124 18.9681 72.0521 19.042 71.9695 19.0505L71.6788 19.0801L71.6633 19.0809ZM69.5268 19.0809L69.5112 19.0801L69.2206 19.0505C69.1379 19.042 69.0776 18.9681 69.0861 18.8854C69.0945 18.8027 69.1684 18.7428 69.2511 18.7509L69.5418 18.7806C69.6245 18.789 69.6847 18.8629 69.6763 18.9456C69.6684 19.0232 69.603 19.0809 69.5268 19.0809ZM70.6054 18.2884C70.5222 18.2884 70.4548 18.221 70.4548 18.1378V17.8355C70.4548 17.7524 70.5222 17.685 70.6054 17.685C70.6885 17.685 70.756 17.7524 70.756 17.8355V18.1378C70.756 18.221 70.6885 18.2884 70.6054 18.2884ZM13.7817 14.0837H12.0566C11.7672 14.0837 11.5316 13.8482 11.5316 13.5588V11.6214C11.5316 11.5339 11.6025 11.4629 11.6902 11.4629H13.5695C13.657 11.4629 13.728 11.5339 13.728 11.6214V13.2584C13.728 13.3458 13.657 13.4168 13.5695 13.4168C13.482 13.4168 13.4111 13.3458 13.4111 13.2584V11.7799H11.8486V13.5588C11.8486 13.6734 11.9419 13.7667 12.0566 13.7667H13.7817C13.8692 13.7667 13.9402 13.8377 13.9402 13.9252C13.9402 14.0128 13.8692 14.0837 13.7817 14.0837Z" fill="#DCF5F9"/>
<path d="M12.4121 13.7668H13.8093C13.9241 13.7668 14.0173 13.6734 14.0173 13.5588V13.4168H12.4548V13.5588C12.4548 13.6324 12.4398 13.7028 12.4121 13.7668ZM13.8093 14.0837H12.0566C12.0274 14.0837 11.9977 14.0811 11.9661 14.0755C11.9293 14.0692 11.896 14.05 11.872 14.0214C11.848 13.9929 11.8348 13.9568 11.8348 13.9195C11.8348 13.8424 11.8902 13.7765 11.966 13.7633C12.0142 13.755 12.0579 13.7298 12.0893 13.6924C12.1208 13.655 12.138 13.6077 12.138 13.5588V13.2584C12.138 13.1709 12.2089 13.0999 12.2964 13.0999H14.1758C14.2634 13.0999 14.3343 13.1709 14.3343 13.2584V13.5588C14.3343 13.8482 14.0988 14.0837 13.8093 14.0837ZM13.1013 12.3255H12.1448C12.0573 12.3255 11.9863 12.2545 11.9863 12.167C11.9863 12.0796 12.0573 12.0086 12.1448 12.0086H13.1013C13.1889 12.0086 13.2597 12.0796 13.2597 12.167C13.2597 12.2545 13.1889 12.3255 13.1013 12.3255ZM13.1013 12.8712H12.1448C12.0573 12.8712 11.9863 12.8003 11.9863 12.7127C11.9863 12.6252 12.0573 12.5542 12.1448 12.5542H13.1013C13.1889 12.5542 13.2597 12.6252 13.2597 12.7127C13.2597 12.8003 13.1889 12.8712 13.1013 12.8712Z" fill="#DCF5F9"/>
<path d="M11.1875 13.6896C11.1 13.6896 11.029 13.6188 11.029 13.5312V11.1364C11.029 11.0489 11.1 10.9779 11.1875 10.9779H13.5695C13.6571 10.9779 13.728 11.0489 13.728 11.1364C13.728 11.224 13.6571 11.2949 13.5695 11.2949H11.3459V13.5312C11.3459 13.6188 11.275 13.6896 11.1875 13.6896ZM14.6903 37.4485C14.6688 37.4485 14.6513 37.4648 14.6513 37.4847V39.9459C14.6513 39.9658 14.6688 39.982 14.6903 39.982H16.1032C16.1247 39.982 16.1421 39.9658 16.1421 39.9459V37.4847C16.1421 37.4648 16.1247 37.4485 16.1032 37.4485H14.6903ZM16.1032 40.299H14.6903C14.494 40.299 14.3343 40.1406 14.3343 39.9459V37.4847C14.3343 37.29 14.494 37.1316 14.6903 37.1316H16.1032C16.2995 37.1316 16.4591 37.29 16.4591 37.4847V39.9459C16.4591 40.1406 16.2995 40.299 16.1032 40.299Z" fill="#DCF5F9"/>
<path d="M14.6513 39.5238H16.1421V37.9067H14.6513V39.5238ZM16.3006 39.8408H14.4928C14.4052 39.8408 14.3343 39.7698 14.3343 39.6823V37.7483C14.3343 37.6608 14.4052 37.5898 14.4928 37.5898H16.3006C16.3882 37.5898 16.4591 37.6608 16.4591 37.7483V39.6823C16.4591 39.7698 16.3882 39.8408 16.3006 39.8408Z" fill="#DCF5F9"/>
<path d="M15.3116 39.2413C15.2369 39.2413 15.1489 39.2207 15.0498 39.165C14.9736 39.122 14.9466 39.0254 14.9895 38.9491C15.0324 38.8728 15.1291 38.8458 15.2054 38.8888C15.256 38.9172 15.3113 38.9311 15.3177 38.9325C15.4106 38.8091 15.5072 38.6342 15.5073 38.5619C15.5028 38.5456 15.457 38.5015 15.4264 38.4829C15.3516 38.4375 15.3278 38.3401 15.3731 38.2653C15.4185 38.1905 15.5159 38.1665 15.5908 38.2119C15.6297 38.2356 15.8244 38.3637 15.8243 38.5621C15.8241 38.7837 15.6053 39.0787 15.5615 39.1356L15.5536 39.145C15.5125 39.1907 15.4286 39.2413 15.3116 39.2413ZM20.0286 23.6398C19.9568 23.6398 19.8863 23.6598 19.8238 23.6987C19.7357 23.7535 19.6741 23.8395 19.6505 23.9408C19.6019 24.1496 19.7324 24.3591 19.9412 24.4077C20.1503 24.4562 20.3597 24.3258 20.4082 24.1171C20.4568 23.9082 20.3264 23.6987 20.1175 23.6501C20.0883 23.6433 20.0585 23.6398 20.0286 23.6398ZM20.0293 24.7349C19.9766 24.7349 19.923 24.7289 19.8694 24.7165C19.4902 24.6282 19.2537 24.248 19.3419 23.8689C19.3845 23.6852 19.4963 23.5292 19.6564 23.4295C19.8165 23.33 20.0057 23.2985 20.1893 23.3413C20.5685 23.4296 20.8051 23.8098 20.7169 24.1889C20.6411 24.5144 20.3501 24.7349 20.0293 24.7349ZM74.1051 38.3075L74.0544 37.9946L74.5207 37.9191L74.5713 38.232L74.1051 38.3075ZM74.571 37.7995L74.497 37.342L74.8098 37.2914L74.8838 37.7489L74.571 37.7995ZM75.081 38.1496L75.0303 37.8367L75.4713 37.7653L75.522 38.0782L75.081 38.1496ZM74.7329 38.7996L74.6547 38.316L74.9675 38.2653L75.0458 38.749L74.7329 38.7996ZM55.6651 10.5283L56.3446 10.6256L56.4374 9.97803L55.7577 9.88076L55.6651 10.5283ZM56.6134 10.9842L55.3064 10.7971L55.4889 9.52218L56.796 9.70924L56.6134 10.9842ZM11.4487 56.5954L12.1283 56.6926L12.2209 56.0451L11.5413 55.9478L11.4487 56.5954ZM12.3971 57.0514L11.09 56.8642L11.2724 55.5892L12.5796 55.7763L12.3971 57.0514Z" fill="#DCF5F9"/>
</svg>
